<svg width="2268" height="906" viewBox="0 0 2268 906" fill="none" xmlns="http://www.w3.org/2000/svg">
<rect width="2268" height="906" fill="white"/>
<path d="M421.482 592.396V387.305H510.008C525.23 387.305 538.548 390.076 549.965 395.617C561.381 401.158 570.26 409.136 576.602 419.551C582.945 429.966 586.116 442.45 586.116 457.004C586.116 471.692 582.845 484.076 576.302 494.157C569.826 504.238 560.713 511.849 548.963 516.989C537.28 522.13 523.627 524.7 508.005 524.7H455.13V481.439H496.789C503.332 481.439 508.906 480.638 513.513 479.035C518.186 477.366 521.758 474.729 524.228 471.124C526.765 467.519 528.034 462.812 528.034 457.004C528.034 451.129 526.765 446.356 524.228 442.684C521.758 438.945 518.186 436.208 513.513 434.472C508.906 432.67 503.332 431.768 496.789 431.768H477.161V592.396H421.482ZM541.653 498.263L592.926 592.396H532.44L482.369 498.263H541.653ZM663.125 592.396H603.04L670.736 387.305H746.844L814.54 592.396H754.455L709.591 443.785H707.989L663.125 592.396ZM651.909 511.481H764.87V553.141H651.909V511.481ZM913.205 592.396H834.293V387.305H912.404C933.5 387.305 951.726 391.411 967.081 399.623C982.503 407.768 994.387 419.518 1002.73 434.873C1011.14 450.161 1015.35 468.487 1015.35 489.851C1015.35 511.214 1011.18 529.574 1002.83 544.929C994.487 560.217 982.67 571.967 967.382 580.179C952.093 588.324 934.034 592.396 913.205 592.396ZM889.972 545.129H911.202C921.35 545.129 929.995 543.494 937.139 540.222C944.349 536.951 949.824 531.31 953.562 523.298C957.368 515.287 959.27 504.138 959.27 489.851C959.27 475.564 957.334 464.415 953.462 456.403C949.657 448.392 944.049 442.751 936.638 439.479C929.294 436.208 920.282 434.572 909.6 434.572H889.972V545.129ZM1081.44 592.396H1021.36L1089.05 387.305H1165.16L1232.86 592.396H1172.77L1127.91 443.785H1126.31L1081.44 592.396ZM1070.23 511.481H1183.19V553.141H1070.23V511.481ZM1252.61 592.396V387.305H1341.14C1356.36 387.305 1369.68 390.076 1381.09 395.617C1392.51 401.158 1401.39 409.136 1407.73 419.551C1414.07 429.966 1417.24 442.45 1417.24 457.004C1417.24 471.692 1413.97 484.076 1407.43 494.157C1400.96 504.238 1391.84 511.849 1380.09 516.989C1368.41 522.13 1354.76 524.7 1339.13 524.7H1286.26V481.439H1327.92C1334.46 481.439 1340.04 480.638 1344.64 479.035C1349.32 477.366 1352.89 474.729 1355.36 471.124C1357.89 467.519 1359.16 462.812 1359.16 457.004C1359.16 451.129 1357.89 446.356 1355.36 442.684C1352.89 438.945 1349.32 436.208 1344.64 434.472C1340.04 432.67 1334.46 431.768 1327.92 431.768H1308.29V592.396H1252.61ZM1372.78 498.263L1424.05 592.396H1363.57L1313.5 498.263H1372.78ZM1618.53 387.305H1674.21V518.692C1674.21 534.314 1670.47 547.833 1662.99 559.249C1655.58 570.599 1645.23 579.378 1631.95 585.587C1618.66 591.729 1603.24 594.8 1585.68 594.8C1567.99 594.8 1552.5 591.729 1539.22 585.587C1525.93 579.378 1515.58 570.599 1508.17 559.249C1500.83 547.833 1497.16 534.314 1497.16 518.692V387.305H1552.84V513.885C1552.84 520.227 1554.24 525.902 1557.04 530.909C1559.85 535.849 1563.72 539.722 1568.66 542.526C1573.67 545.329 1579.34 546.731 1585.68 546.731C1592.09 546.731 1597.77 545.329 1602.71 542.526C1607.65 539.722 1611.52 535.849 1614.32 530.909C1617.13 525.902 1618.53 520.227 1618.53 513.885V387.305ZM1700.67 592.396V387.305H1844.88V432.169H1756.35V467.419H1836.06V512.283H1756.35V592.396H1700.67ZM2056.83 464.214H2000.35C1999.95 459.541 1998.88 455.302 1997.14 451.496C1995.47 447.691 1993.14 444.42 1990.13 441.682C1987.19 438.878 1983.62 436.742 1979.42 435.273C1975.21 433.738 1970.44 432.97 1965.1 432.97C1955.75 432.97 1947.84 435.24 1941.36 439.78C1934.95 444.32 1930.08 450.829 1926.74 459.307C1923.47 467.786 1921.84 477.967 1921.84 489.851C1921.84 502.402 1923.5 512.917 1926.84 521.396C1930.25 529.807 1935.15 536.15 1941.56 540.423C1947.97 544.628 1955.68 546.731 1964.7 546.731C1969.84 546.731 1974.44 546.097 1978.52 544.829C1982.59 543.494 1986.13 541.591 1989.13 539.121C1992.14 536.65 1994.57 533.68 1996.44 530.208C1998.38 526.67 1999.68 522.697 2000.35 518.291L2056.83 518.692C2056.16 527.371 2053.72 536.217 2049.52 545.229C2045.31 554.175 2039.34 562.454 2031.59 570.065C2023.91 577.609 2014.4 583.684 2003.05 588.29C1991.7 592.897 1978.52 595.2 1963.49 595.2C1944.67 595.2 1927.78 591.161 1912.82 583.083C1897.94 575.005 1886.15 563.121 1877.47 547.432C1868.86 531.744 1864.55 512.55 1864.55 489.851C1864.55 467.018 1868.96 447.791 1877.77 432.169C1886.59 416.48 1898.47 404.63 1913.42 396.619C1928.38 388.54 1945.07 384.501 1963.49 384.501C1976.45 384.501 1988.36 386.271 1999.25 389.809C2010.13 393.347 2019.67 398.521 2027.89 405.331C2036.1 412.074 2042.71 420.386 2047.71 430.266C2052.72 440.147 2055.76 451.463 2056.83 464.214Z" fill="#36345B"/>
<path d="M429.046 671.614V629.432H454.504V633.963H434.154V648.216H453.185V652.747H434.154V667.083H454.833V671.614H429.046ZM494.16 647.063L489.794 648.299C489.519 647.571 489.114 646.864 488.579 646.177C488.057 645.477 487.343 644.9 486.437 644.447C485.53 643.994 484.37 643.767 482.956 643.767C481.02 643.767 479.406 644.214 478.116 645.106C476.839 645.985 476.2 647.104 476.2 648.463C476.2 649.672 476.639 650.626 477.518 651.326C478.397 652.027 479.77 652.61 481.638 653.077L486.334 654.23C489.162 654.917 491.27 655.967 492.657 657.382C494.044 658.782 494.737 660.588 494.737 662.799C494.737 664.611 494.215 666.231 493.172 667.659C492.142 669.087 490.7 670.213 488.846 671.037C486.993 671.861 484.837 672.273 482.379 672.273C479.152 672.273 476.482 671.573 474.367 670.172C472.252 668.772 470.914 666.726 470.351 664.034L474.964 662.881C475.404 664.584 476.234 665.861 477.456 666.712C478.692 667.563 480.306 667.989 482.297 667.989C484.562 667.989 486.361 667.508 487.693 666.547C489.039 665.572 489.711 664.405 489.711 663.046C489.711 661.947 489.327 661.027 488.558 660.286C487.789 659.531 486.608 658.968 485.015 658.597L479.743 657.361C476.845 656.675 474.717 655.61 473.358 654.169C472.012 652.713 471.339 650.894 471.339 648.711C471.339 646.926 471.84 645.346 472.843 643.973C473.859 642.6 475.239 641.522 476.983 640.74C478.74 639.957 480.731 639.566 482.956 639.566C486.086 639.566 488.544 640.252 490.329 641.625C492.128 642.998 493.405 644.811 494.16 647.063ZM523.606 672.273C520.64 672.273 518.086 671.573 515.944 670.172C513.802 668.772 512.154 666.842 511.001 664.385C509.848 661.927 509.271 659.119 509.271 655.961C509.271 652.747 509.861 649.912 511.042 647.454C512.237 644.983 513.898 643.053 516.027 641.667C518.169 640.266 520.668 639.566 523.524 639.566C525.748 639.566 527.753 639.978 529.538 640.801C531.323 641.625 532.785 642.779 533.925 644.262C535.065 645.745 535.772 647.475 536.047 649.452H531.186C530.815 648.01 529.991 646.733 528.714 645.621C527.451 644.495 525.748 643.932 523.606 643.932C521.711 643.932 520.05 644.426 518.622 645.415C517.207 646.39 516.102 647.77 515.306 649.555C514.523 651.326 514.132 653.407 514.132 655.796C514.132 658.24 514.516 660.368 515.285 662.181C516.068 663.993 517.166 665.401 518.581 666.403C520.009 667.405 521.684 667.907 523.606 667.907C524.869 667.907 526.016 667.687 527.046 667.247C528.076 666.808 528.948 666.176 529.662 665.353C530.376 664.529 530.884 663.54 531.186 662.387H536.047C535.772 664.254 535.092 665.936 534.007 667.433C532.936 668.916 531.515 670.097 529.744 670.975C527.986 671.841 525.94 672.273 523.606 672.273ZM571.79 658.679V639.978H576.651V671.614H571.79V666.259H571.46C570.719 667.865 569.565 669.232 568 670.358C566.435 671.47 564.457 672.026 562.068 672.026C560.091 672.026 558.333 671.593 556.796 670.728C555.258 669.85 554.049 668.531 553.171 666.774C552.292 665.002 551.852 662.771 551.852 660.08V639.978H556.713V659.75C556.713 662.057 557.358 663.897 558.649 665.27C559.954 666.643 561.615 667.33 563.634 667.33C564.842 667.33 566.071 667.021 567.32 666.403C568.584 665.785 569.641 664.838 570.492 663.561C571.357 662.284 571.79 660.657 571.79 658.679ZM608.012 639.978V644.097H591.617V639.978H608.012ZM596.396 632.398H601.256V662.551C601.256 663.925 601.455 664.954 601.854 665.641C602.266 666.314 602.787 666.767 603.419 667C604.064 667.22 604.744 667.33 605.458 667.33C605.994 667.33 606.433 667.302 606.776 667.247C607.12 667.179 607.394 667.124 607.6 667.083L608.589 671.449C608.259 671.573 607.799 671.696 607.209 671.82C606.618 671.957 605.87 672.026 604.964 672.026C603.591 672.026 602.245 671.731 600.927 671.14C599.622 670.55 598.538 669.65 597.673 668.442C596.821 667.234 596.396 665.71 596.396 663.87V632.398ZM633.333 672.355C631.329 672.355 629.509 671.978 627.875 671.223C626.241 670.454 624.944 669.348 623.983 667.907C623.021 666.451 622.541 664.693 622.541 662.634C622.541 660.821 622.898 659.352 623.612 658.226C624.326 657.086 625.28 656.194 626.475 655.549C627.669 654.903 628.988 654.423 630.429 654.107C631.885 653.777 633.347 653.516 634.816 653.324C636.739 653.077 638.297 652.892 639.492 652.768C640.7 652.631 641.579 652.404 642.128 652.088C642.691 651.773 642.973 651.223 642.973 650.441V650.276C642.973 648.244 642.417 646.665 641.304 645.539C640.206 644.413 638.538 643.85 636.299 643.85C633.979 643.85 632.159 644.358 630.841 645.374C629.523 646.39 628.596 647.475 628.061 648.628L623.447 646.98C624.271 645.058 625.369 643.561 626.743 642.49C628.129 641.406 629.64 640.65 631.274 640.225C632.922 639.785 634.542 639.566 636.135 639.566C637.151 639.566 638.318 639.689 639.636 639.936C640.968 640.17 642.252 640.657 643.488 641.399C644.737 642.14 645.774 643.259 646.598 644.756C647.422 646.253 647.833 648.257 647.833 650.77V671.614H642.973V667.33H642.726C642.396 668.016 641.847 668.751 641.078 669.534C640.309 670.316 639.286 670.982 638.009 671.532C636.732 672.081 635.173 672.355 633.333 672.355ZM634.075 667.989C635.997 667.989 637.618 667.611 638.936 666.856C640.268 666.101 641.27 665.126 641.943 663.931C642.629 662.737 642.973 661.48 642.973 660.162V655.713C642.767 655.961 642.314 656.187 641.613 656.393C640.927 656.585 640.13 656.757 639.224 656.908C638.332 657.045 637.46 657.169 636.608 657.279C635.771 657.375 635.091 657.457 634.569 657.526C633.306 657.691 632.125 657.958 631.027 658.329C629.942 658.686 629.063 659.229 628.39 659.956C627.731 660.67 627.402 661.645 627.402 662.881C627.402 664.57 628.026 665.847 629.276 666.712C630.539 667.563 632.139 667.989 634.075 667.989ZM672.655 665.847L672.326 668.071C672.092 669.637 671.735 671.312 671.255 673.097C670.788 674.882 670.301 676.564 669.793 678.143C669.284 679.722 668.866 680.979 668.536 681.912H664.829C665.007 681.033 665.241 679.873 665.529 678.431C665.817 676.99 666.106 675.376 666.394 673.591C666.696 671.82 666.943 670.007 667.136 668.154L667.383 665.847H672.655ZM729.132 639.978V644.097H712.737V639.978H729.132ZM717.516 632.398H722.377V662.551C722.377 663.925 722.576 664.954 722.974 665.641C723.386 666.314 723.908 666.767 724.539 667C725.185 667.22 725.864 667.33 726.578 667.33C727.114 667.33 727.553 667.302 727.897 667.247C728.24 667.179 728.514 667.124 728.72 667.083L729.709 671.449C729.38 671.573 728.92 671.696 728.329 671.82C727.739 671.957 726.99 672.026 726.084 672.026C724.711 672.026 723.365 671.731 722.047 671.14C720.743 670.55 719.658 669.65 718.793 668.442C717.942 667.234 717.516 665.71 717.516 663.87V632.398ZM745.144 671.614V639.978H749.84V644.756H750.17C750.746 643.191 751.79 641.921 753.3 640.946C754.811 639.971 756.513 639.483 758.408 639.483C758.765 639.483 759.212 639.49 759.747 639.504C760.283 639.518 760.688 639.538 760.962 639.566V644.509C760.798 644.468 760.42 644.406 759.829 644.323C759.253 644.227 758.642 644.179 757.996 644.179C756.459 644.179 755.085 644.502 753.877 645.147C752.682 645.779 751.735 646.658 751.035 647.784C750.348 648.896 750.005 650.166 750.005 651.594V671.614H745.144ZM784.734 672.355C782.729 672.355 780.91 671.978 779.276 671.223C777.642 670.454 776.344 669.348 775.383 667.907C774.422 666.451 773.941 664.693 773.941 662.634C773.941 660.821 774.298 659.352 775.012 658.226C775.726 657.086 776.681 656.194 777.875 655.549C779.07 654.903 780.388 654.423 781.83 654.107C783.285 653.777 784.748 653.516 786.217 653.324C788.139 653.077 789.698 652.892 790.892 652.768C792.101 652.631 792.979 652.404 793.529 652.088C794.092 651.773 794.373 651.223 794.373 650.441V650.276C794.373 648.244 793.817 646.665 792.705 645.539C791.606 644.413 789.938 643.85 787.7 643.85C785.379 643.85 783.56 644.358 782.242 645.374C780.923 646.39 779.997 647.475 779.461 648.628L774.848 646.98C775.671 645.058 776.77 643.561 778.143 642.49C779.53 641.406 781.04 640.65 782.674 640.225C784.322 639.785 785.942 639.566 787.535 639.566C788.551 639.566 789.718 639.689 791.036 639.936C792.368 640.17 793.652 640.657 794.888 641.399C796.138 642.14 797.174 643.259 797.998 644.756C798.822 646.253 799.234 648.257 799.234 650.77V671.614H794.373V667.33H794.126C793.796 668.016 793.247 668.751 792.478 669.534C791.709 670.316 790.686 670.982 789.409 671.532C788.132 672.081 786.574 672.355 784.734 672.355ZM785.475 667.989C787.398 667.989 789.018 667.611 790.336 666.856C791.668 666.101 792.67 665.126 793.343 663.931C794.03 662.737 794.373 661.48 794.373 660.162V655.713C794.167 655.961 793.714 656.187 793.014 656.393C792.327 656.585 791.531 656.757 790.624 656.908C789.732 657.045 788.86 657.169 788.009 657.279C787.171 657.375 786.491 657.457 785.97 657.526C784.706 657.691 783.526 657.958 782.427 658.329C781.342 658.686 780.464 659.229 779.791 659.956C779.132 660.67 778.802 661.645 778.802 662.881C778.802 664.57 779.427 665.847 780.676 666.712C781.94 667.563 783.539 667.989 785.475 667.989ZM821.667 652.583V671.614H816.806V639.978H821.502V644.921H821.914C822.655 643.314 823.781 642.024 825.292 641.049C826.802 640.06 828.752 639.566 831.141 639.566C833.283 639.566 835.157 640.005 836.764 640.884C838.37 641.749 839.62 643.067 840.513 644.838C841.405 646.596 841.851 648.82 841.851 651.512V671.614H836.991V651.841C836.991 649.356 836.345 647.42 835.054 646.033C833.764 644.632 831.992 643.932 829.741 643.932C828.189 643.932 826.802 644.269 825.58 644.941C824.372 645.614 823.417 646.596 822.717 647.887C822.017 649.177 821.667 650.743 821.667 652.583ZM881.843 647.063L877.476 648.299C877.202 647.571 876.797 646.864 876.261 646.177C875.739 645.477 875.025 644.9 874.119 644.447C873.213 643.994 872.052 643.767 870.638 643.767C868.702 643.767 867.089 644.214 865.798 645.106C864.521 645.985 863.882 647.104 863.882 648.463C863.882 649.672 864.322 650.626 865.201 651.326C866.079 652.027 867.453 652.61 869.32 653.077L874.016 654.23C876.845 654.917 878.952 655.967 880.339 657.382C881.726 658.782 882.419 660.588 882.419 662.799C882.419 664.611 881.898 666.231 880.854 667.659C879.824 669.087 878.382 670.213 876.529 671.037C874.675 671.861 872.519 672.273 870.061 672.273C866.835 672.273 864.164 671.573 862.049 670.172C859.935 668.772 858.596 666.726 858.033 664.034L862.647 662.881C863.086 664.584 863.917 665.861 865.139 666.712C866.375 667.563 867.988 667.989 869.979 667.989C872.245 667.989 874.043 667.508 875.375 666.547C876.721 665.572 877.394 664.405 877.394 663.046C877.394 661.947 877.009 661.027 876.24 660.286C875.471 659.531 874.291 658.968 872.698 658.597L867.425 657.361C864.528 656.675 862.399 655.61 861.04 654.169C859.694 652.713 859.022 650.894 859.022 648.711C859.022 646.926 859.523 645.346 860.525 643.973C861.541 642.6 862.921 641.522 864.665 640.74C866.423 639.957 868.414 639.566 870.638 639.566C873.769 639.566 876.227 640.252 878.012 641.625C879.81 642.998 881.087 644.811 881.843 647.063ZM898.436 683.478V639.978H903.132V645.003H903.709C904.066 644.454 904.56 643.754 905.192 642.902C905.837 642.037 906.757 641.268 907.952 640.595C909.16 639.909 910.794 639.566 912.854 639.566C915.518 639.566 917.866 640.232 919.898 641.564C921.93 642.895 923.516 644.783 924.656 647.228C925.795 649.672 926.365 652.555 926.365 655.878C926.365 659.229 925.795 662.133 924.656 664.591C923.516 667.035 921.937 668.93 919.919 670.275C917.9 671.607 915.573 672.273 912.936 672.273C910.904 672.273 909.277 671.937 908.055 671.264C906.833 670.577 905.892 669.801 905.233 668.936C904.574 668.058 904.066 667.33 903.709 666.753H903.297V683.478H898.436ZM903.215 655.796C903.215 658.185 903.565 660.293 904.265 662.119C904.965 663.931 905.988 665.353 907.334 666.382C908.68 667.399 910.327 667.907 912.277 667.907C914.309 667.907 916.005 667.371 917.365 666.3C918.738 665.215 919.768 663.76 920.454 661.934C921.154 660.094 921.505 658.048 921.505 655.796C921.505 653.571 921.161 651.567 920.475 649.782C919.802 647.983 918.779 646.562 917.406 645.518C916.046 644.461 914.337 643.932 912.277 643.932C910.3 643.932 908.638 644.433 907.293 645.436C905.947 646.424 904.931 647.811 904.245 649.596C903.558 651.368 903.215 653.434 903.215 655.796ZM951.79 672.355C949.785 672.355 947.966 671.978 946.332 671.223C944.698 670.454 943.4 669.348 942.439 667.907C941.478 666.451 940.997 664.693 940.997 662.634C940.997 660.821 941.354 659.352 942.068 658.226C942.782 657.086 943.736 656.194 944.931 655.549C946.126 654.903 947.444 654.423 948.886 654.107C950.341 653.777 951.803 653.516 953.273 653.324C955.195 653.077 956.753 652.892 957.948 652.768C959.156 652.631 960.035 652.404 960.584 652.088C961.147 651.773 961.429 651.223 961.429 650.441V650.276C961.429 648.244 960.873 646.665 959.761 645.539C958.662 644.413 956.994 643.85 954.756 643.85C952.435 643.85 950.616 644.358 949.298 645.374C947.979 646.39 947.052 647.475 946.517 648.628L941.903 646.98C942.727 645.058 943.826 643.561 945.199 642.49C946.586 641.406 948.096 640.65 949.73 640.225C951.378 639.785 952.998 639.566 954.591 639.566C955.607 639.566 956.774 639.689 958.092 639.936C959.424 640.17 960.708 640.657 961.944 641.399C963.193 642.14 964.23 643.259 965.054 644.756C965.878 646.253 966.29 648.257 966.29 650.77V671.614H961.429V667.33H961.182C960.852 668.016 960.303 668.751 959.534 669.534C958.765 670.316 957.742 670.982 956.465 671.532C955.188 672.081 953.63 672.355 951.79 672.355ZM952.531 667.989C954.454 667.989 956.074 667.611 957.392 666.856C958.724 666.101 959.726 665.126 960.399 663.931C961.086 662.737 961.429 661.48 961.429 660.162V655.713C961.223 655.961 960.77 656.187 960.07 656.393C959.383 656.585 958.587 656.757 957.68 656.908C956.788 657.045 955.916 657.169 955.065 657.279C954.227 657.375 953.547 657.457 953.026 657.526C951.762 657.691 950.581 657.958 949.483 658.329C948.398 658.686 947.519 659.229 946.847 659.956C946.187 660.67 945.858 661.645 945.858 662.881C945.858 664.57 946.483 665.847 947.732 666.712C948.995 667.563 950.595 667.989 952.531 667.989ZM983.862 671.614V639.978H988.558V644.756H988.887C989.464 643.191 990.508 641.921 992.018 640.946C993.528 639.971 995.231 639.483 997.126 639.483C997.483 639.483 997.929 639.49 998.465 639.504C999 639.518 999.405 639.538 999.68 639.566V644.509C999.515 644.468 999.138 644.406 998.547 644.323C997.97 644.227 997.359 644.179 996.714 644.179C995.176 644.179 993.803 644.502 992.595 645.147C991.4 645.779 990.453 646.658 989.752 647.784C989.066 648.896 988.723 650.166 988.723 651.594V671.614H983.862ZM1026.44 672.273C1023.39 672.273 1020.77 671.6 1018.55 670.255C1016.36 668.895 1014.66 667 1013.47 664.57C1012.29 662.126 1011.7 659.283 1011.7 656.043C1011.7 652.802 1012.29 649.946 1013.47 647.475C1014.66 644.989 1016.32 643.053 1018.45 641.667C1020.59 640.266 1023.09 639.566 1025.95 639.566C1027.6 639.566 1029.22 639.84 1030.83 640.39C1032.44 640.939 1033.9 641.831 1035.22 643.067C1036.54 644.289 1037.59 645.909 1038.37 647.928C1039.15 649.946 1039.54 652.432 1039.54 655.384V657.443H1015.16V653.242H1034.6C1034.6 651.457 1034.24 649.864 1033.53 648.463C1032.83 647.063 1031.83 645.957 1030.52 645.147C1029.23 644.337 1027.71 643.932 1025.95 643.932C1024.01 643.932 1022.34 644.413 1020.92 645.374C1019.52 646.321 1018.44 647.557 1017.69 649.081C1016.93 650.605 1016.56 652.239 1016.56 653.983V656.784C1016.56 659.174 1016.97 661.199 1017.79 662.86C1018.63 664.508 1019.79 665.765 1021.27 666.63C1022.76 667.481 1024.48 667.907 1026.44 667.907C1027.72 667.907 1028.87 667.728 1029.9 667.371C1030.95 667 1031.85 666.451 1032.6 665.723C1033.36 664.982 1033.94 664.062 1034.35 662.963L1039.05 664.282C1038.55 665.874 1037.72 667.275 1036.56 668.483C1035.39 669.678 1033.95 670.612 1032.23 671.284C1030.51 671.943 1028.59 672.273 1026.44 672.273ZM1029.99 636.188L1025.7 630.421L1021.42 636.188H1016.8V635.858L1023.48 627.29H1027.93L1034.6 635.858V636.188H1029.99ZM1060.5 652.583V671.614H1055.64V639.978H1060.33V644.921H1060.74C1061.49 643.314 1062.61 642.024 1064.12 641.049C1065.63 640.06 1067.58 639.566 1069.97 639.566C1072.11 639.566 1073.99 640.005 1075.59 640.884C1077.2 641.749 1078.45 643.067 1079.34 644.838C1080.24 646.596 1080.68 648.82 1080.68 651.512V671.614H1075.82V651.841C1075.82 649.356 1075.18 647.42 1073.89 646.033C1072.59 644.632 1070.82 643.932 1068.57 643.932C1067.02 643.932 1065.63 644.269 1064.41 644.941C1063.2 645.614 1062.25 646.596 1061.55 647.887C1060.85 649.177 1060.5 650.743 1060.5 652.583ZM1111.12 672.273C1108.15 672.273 1105.6 671.573 1103.45 670.172C1101.31 668.772 1099.66 666.842 1098.51 664.385C1097.36 661.927 1096.78 659.119 1096.78 655.961C1096.78 652.747 1097.37 649.912 1098.55 647.454C1099.75 644.983 1101.41 643.053 1103.54 641.667C1105.68 640.266 1108.18 639.566 1111.03 639.566C1113.26 639.566 1115.26 639.978 1117.05 640.801C1118.83 641.625 1120.3 642.779 1121.44 644.262C1122.58 645.745 1123.28 647.475 1123.56 649.452H1118.7C1118.33 648.01 1117.5 646.733 1116.22 645.621C1114.96 644.495 1113.26 643.932 1111.12 643.932C1109.22 643.932 1107.56 644.426 1106.13 645.415C1104.72 646.39 1103.61 647.77 1102.82 649.555C1102.03 651.326 1101.64 653.407 1101.64 655.796C1101.64 658.24 1102.03 660.368 1102.8 662.181C1103.58 663.993 1104.68 665.401 1106.09 666.403C1107.52 667.405 1109.19 667.907 1111.12 667.907C1112.38 667.907 1113.53 667.687 1114.56 667.247C1115.59 666.808 1116.46 666.176 1117.17 665.353C1117.89 664.529 1118.39 663.54 1118.7 662.387H1123.56C1123.28 664.254 1122.6 665.936 1121.52 667.433C1120.45 668.916 1119.03 670.097 1117.25 670.975C1115.5 671.841 1113.45 672.273 1111.12 672.273ZM1139.36 671.614V639.978H1144.22V671.614H1139.36ZM1141.83 634.705C1140.89 634.705 1140.07 634.382 1139.38 633.737C1138.71 633.091 1138.37 632.316 1138.37 631.409C1138.37 630.503 1138.71 629.727 1139.38 629.082C1140.07 628.437 1140.89 628.114 1141.83 628.114C1142.78 628.114 1143.59 628.437 1144.26 629.082C1144.95 629.727 1145.29 630.503 1145.29 631.409C1145.29 632.316 1144.95 633.091 1144.26 633.737C1143.59 634.382 1142.78 634.705 1141.83 634.705ZM1171.14 672.355C1169.13 672.355 1167.31 671.978 1165.68 671.223C1164.04 670.454 1162.75 669.348 1161.79 667.907C1160.82 666.451 1160.34 664.693 1160.34 662.634C1160.34 660.821 1160.7 659.352 1161.41 658.226C1162.13 657.086 1163.08 656.194 1164.28 655.549C1165.47 654.903 1166.79 654.423 1168.23 654.107C1169.69 653.777 1171.15 653.516 1172.62 653.324C1174.54 653.077 1176.1 652.892 1177.29 652.768C1178.5 652.631 1179.38 652.404 1179.93 652.088C1180.49 651.773 1180.78 651.223 1180.78 650.441V650.276C1180.78 648.244 1180.22 646.665 1179.11 645.539C1178.01 644.413 1176.34 643.85 1174.1 643.85C1171.78 643.85 1169.96 644.358 1168.64 645.374C1167.33 646.39 1166.4 647.475 1165.86 648.628L1161.25 646.98C1162.07 645.058 1163.17 643.561 1164.55 642.49C1165.93 641.406 1167.44 640.65 1169.08 640.225C1170.72 639.785 1172.34 639.566 1173.94 639.566C1174.95 639.566 1176.12 639.689 1177.44 639.936C1178.77 640.17 1180.05 640.657 1181.29 641.399C1182.54 642.14 1183.58 643.259 1184.4 644.756C1185.22 646.253 1185.64 648.257 1185.64 650.77V671.614H1180.78V667.33H1180.53C1180.2 668.016 1179.65 668.751 1178.88 669.534C1178.11 670.316 1177.09 670.982 1175.81 671.532C1174.53 672.081 1172.98 672.355 1171.14 672.355ZM1171.88 667.989C1173.8 667.989 1175.42 667.611 1176.74 666.856C1178.07 666.101 1179.07 665.126 1179.75 663.931C1180.43 662.737 1180.78 661.48 1180.78 660.162V655.713C1180.57 655.961 1180.12 656.187 1179.42 656.393C1178.73 656.585 1177.93 656.757 1177.03 656.908C1176.13 657.045 1175.26 657.169 1174.41 657.279C1173.57 657.375 1172.89 657.457 1172.37 657.526C1171.11 657.691 1169.93 657.958 1168.83 658.329C1167.74 658.686 1166.87 659.229 1166.19 659.956C1165.53 660.67 1165.2 661.645 1165.2 662.881C1165.2 664.57 1165.83 665.847 1167.08 666.712C1168.34 667.563 1169.94 667.989 1171.88 667.989ZM1241.48 672.273C1238.44 672.273 1235.81 671.6 1233.6 670.255C1231.4 668.895 1229.7 667 1228.51 664.57C1227.33 662.126 1226.74 659.283 1226.74 656.043C1226.74 652.802 1227.33 649.946 1228.51 647.475C1229.7 644.989 1231.37 643.053 1233.49 641.667C1235.64 640.266 1238.13 639.566 1240.99 639.566C1242.64 639.566 1244.27 639.84 1245.87 640.39C1247.48 640.939 1248.94 641.831 1250.26 643.067C1251.58 644.289 1252.63 645.909 1253.41 647.928C1254.19 649.946 1254.58 652.432 1254.58 655.384V657.443H1230.2V653.242H1249.64C1249.64 651.457 1249.28 649.864 1248.57 648.463C1247.87 647.063 1246.87 645.957 1245.56 645.147C1244.27 644.337 1242.75 643.932 1240.99 643.932C1239.05 643.932 1237.38 644.413 1235.97 645.374C1234.56 646.321 1233.49 647.557 1232.73 649.081C1231.98 650.605 1231.6 652.239 1231.6 653.983V656.784C1231.6 659.174 1232.01 661.199 1232.83 662.86C1233.67 664.508 1234.83 665.765 1236.32 666.63C1237.8 667.481 1239.52 667.907 1241.48 667.907C1242.76 667.907 1243.92 667.728 1244.95 667.371C1245.99 667 1246.89 666.451 1247.64 665.723C1248.4 664.982 1248.98 664.062 1249.39 662.963L1254.09 664.282C1253.6 665.874 1252.76 667.275 1251.6 668.483C1250.43 669.678 1248.99 670.612 1247.27 671.284C1245.56 671.943 1243.63 672.273 1241.48 672.273ZM1295.69 671.614V639.978H1300.39V644.921H1300.8C1301.46 643.232 1302.52 641.921 1303.99 640.987C1305.46 640.039 1307.23 639.566 1309.28 639.566C1311.37 639.566 1313.11 640.039 1314.5 640.987C1315.9 641.921 1316.99 643.232 1317.77 644.921H1318.1C1318.91 643.287 1320.13 641.989 1321.75 641.028C1323.37 640.053 1325.31 639.566 1327.57 639.566C1330.4 639.566 1332.72 640.451 1334.52 642.223C1336.31 643.98 1337.21 646.72 1337.21 650.441V671.614H1332.35V650.441C1332.35 648.106 1331.71 646.438 1330.44 645.436C1329.16 644.433 1327.66 643.932 1325.93 643.932C1323.7 643.932 1321.98 644.605 1320.76 645.951C1319.53 647.283 1318.92 648.971 1318.92 651.017V671.614H1313.98V649.946C1313.98 648.148 1313.4 646.699 1312.23 645.6C1311.06 644.488 1309.56 643.932 1307.72 643.932C1306.46 643.932 1305.28 644.269 1304.18 644.941C1303.09 645.614 1302.21 646.548 1301.54 647.743C1300.88 648.923 1300.55 650.29 1300.55 651.841V671.614H1295.69ZM1368.07 672.273C1365.02 672.273 1362.39 671.6 1360.18 670.255C1357.98 668.895 1356.28 667 1355.09 664.57C1353.91 662.126 1353.32 659.283 1353.32 656.043C1353.32 652.802 1353.91 649.946 1355.09 647.475C1356.28 644.989 1357.95 643.053 1360.07 641.667C1362.22 640.266 1364.71 639.566 1367.57 639.566C1369.22 639.566 1370.85 639.84 1372.45 640.39C1374.06 640.939 1375.52 641.831 1376.84 643.067C1378.16 644.289 1379.21 645.909 1379.99 647.928C1380.77 649.946 1381.16 652.432 1381.16 655.384V657.443H1356.78V653.242H1376.22C1376.22 651.457 1375.86 649.864 1375.15 648.463C1374.45 647.063 1373.45 645.957 1372.14 645.147C1370.85 644.337 1369.33 643.932 1367.57 643.932C1365.63 643.932 1363.96 644.413 1362.55 645.374C1361.14 646.321 1360.07 647.557 1359.31 649.081C1358.56 650.605 1358.18 652.239 1358.18 653.983V656.784C1358.18 659.174 1358.59 661.199 1359.41 662.86C1360.25 664.508 1361.41 665.765 1362.9 666.63C1364.38 667.481 1366.1 667.907 1368.07 667.907C1369.34 667.907 1370.5 667.728 1371.53 667.371C1372.57 667 1373.47 666.451 1374.22 665.723C1374.98 664.982 1375.56 664.062 1375.97 662.963L1380.67 664.282C1380.18 665.874 1379.35 667.275 1378.18 668.483C1377.01 669.678 1375.57 670.612 1373.85 671.284C1372.14 671.943 1370.21 672.273 1368.07 672.273ZM1402.12 629.432V671.614H1397.26V629.432H1402.12ZM1424.58 652.583V671.614H1419.72V629.432H1424.58V644.921H1425C1425.74 643.287 1426.85 641.989 1428.33 641.028C1429.83 640.053 1431.82 639.566 1434.31 639.566C1436.46 639.566 1438.35 639.998 1439.97 640.863C1441.59 641.715 1442.85 643.026 1443.74 644.797C1444.64 646.555 1445.1 648.793 1445.1 651.512V671.614H1440.24V651.841C1440.24 649.328 1439.58 647.385 1438.28 646.012C1436.99 644.626 1435.2 643.932 1432.9 643.932C1431.31 643.932 1429.88 644.269 1428.62 644.941C1427.37 645.614 1426.38 646.596 1425.65 647.887C1424.94 649.177 1424.58 650.743 1424.58 652.583ZM1475.54 672.273C1472.69 672.273 1470.18 671.593 1468.02 670.234C1465.88 668.875 1464.21 666.973 1463 664.529C1461.8 662.085 1461.21 659.229 1461.21 655.961C1461.21 652.665 1461.8 649.788 1463 647.331C1464.21 644.873 1465.88 642.964 1468.02 641.605C1470.18 640.245 1472.69 639.566 1475.54 639.566C1478.4 639.566 1480.9 640.245 1483.04 641.605C1485.2 642.964 1486.87 644.873 1488.07 647.331C1489.27 649.788 1489.88 652.665 1489.88 655.961C1489.88 659.229 1489.27 662.085 1488.07 664.529C1486.87 666.973 1485.2 668.875 1483.04 670.234C1480.9 671.593 1478.4 672.273 1475.54 672.273ZM1475.54 667.907C1477.71 667.907 1479.5 667.35 1480.9 666.238C1482.3 665.126 1483.33 663.664 1484.01 661.851C1484.68 660.039 1485.02 658.075 1485.02 655.961C1485.02 653.846 1484.68 651.876 1484.01 650.049C1483.33 648.223 1482.3 646.747 1480.9 645.621C1479.5 644.495 1477.71 643.932 1475.54 643.932C1473.37 643.932 1471.59 644.495 1470.19 645.621C1468.79 646.747 1467.75 648.223 1467.08 650.049C1466.4 651.876 1466.07 653.846 1466.07 655.961C1466.07 658.075 1466.4 660.039 1467.08 661.851C1467.75 663.664 1468.79 665.126 1470.19 666.238C1471.59 667.35 1473.37 667.907 1475.54 667.907ZM1506 671.614V639.978H1510.69V644.756H1511.02C1511.6 643.191 1512.64 641.921 1514.15 640.946C1515.66 639.971 1517.37 639.483 1519.26 639.483C1519.62 639.483 1520.07 639.49 1520.6 639.504C1521.14 639.518 1521.54 639.538 1521.82 639.566V644.509C1521.65 644.468 1521.27 644.406 1520.68 644.323C1520.11 644.227 1519.5 644.179 1518.85 644.179C1517.31 644.179 1515.94 644.502 1514.73 645.147C1513.54 645.779 1512.59 646.658 1511.89 647.784C1511.2 648.896 1510.86 650.166 1510.86 651.594V671.614H1506ZM1536.28 671.614V639.978H1541.14V671.614H1536.28ZM1538.75 634.705C1537.8 634.705 1536.98 634.382 1536.3 633.737C1535.63 633.091 1535.29 632.316 1535.29 631.409C1535.29 630.503 1535.63 629.727 1536.3 629.082C1536.98 628.437 1537.8 628.114 1538.75 628.114C1539.7 628.114 1540.51 628.437 1541.18 629.082C1541.87 629.727 1542.21 630.503 1542.21 631.409C1542.21 632.316 1541.87 633.091 1541.18 633.737C1540.51 634.382 1539.7 634.705 1538.75 634.705ZM1568.05 672.355C1566.05 672.355 1564.23 671.978 1562.59 671.223C1560.96 670.454 1559.66 669.348 1558.7 667.907C1557.74 666.451 1557.26 664.693 1557.26 662.634C1557.26 660.821 1557.62 659.352 1558.33 658.226C1559.04 657.086 1560 656.194 1561.19 655.549C1562.39 654.903 1563.71 654.423 1565.15 654.107C1566.6 653.777 1568.06 653.516 1569.53 653.324C1571.46 653.077 1573.01 652.892 1574.21 652.768C1575.42 652.631 1576.3 652.404 1576.85 652.088C1577.41 651.773 1577.69 651.223 1577.69 650.441V650.276C1577.69 648.244 1577.13 646.665 1576.02 645.539C1574.92 644.413 1573.26 643.85 1571.02 643.85C1568.7 643.85 1566.88 644.358 1565.56 645.374C1564.24 646.39 1563.31 647.475 1562.78 648.628L1558.16 646.98C1558.99 645.058 1560.09 643.561 1561.46 642.49C1562.85 641.406 1564.36 640.65 1565.99 640.225C1567.64 639.785 1569.26 639.566 1570.85 639.566C1571.87 639.566 1573.04 639.689 1574.35 639.936C1575.69 640.17 1576.97 640.657 1578.21 641.399C1579.45 642.14 1580.49 643.259 1581.32 644.756C1582.14 646.253 1582.55 648.257 1582.55 650.77V671.614H1577.69V667.33H1577.44C1577.11 668.016 1576.56 668.751 1575.8 669.534C1575.03 670.316 1574 670.982 1572.73 671.532C1571.45 672.081 1569.89 672.355 1568.05 672.355ZM1568.79 667.989C1570.71 667.989 1572.34 667.611 1573.65 666.856C1574.99 666.101 1575.99 665.126 1576.66 663.931C1577.35 662.737 1577.69 661.48 1577.69 660.162V655.713C1577.48 655.961 1577.03 656.187 1576.33 656.393C1575.64 656.585 1574.85 656.757 1573.94 656.908C1573.05 657.045 1572.18 657.169 1571.33 657.279C1570.49 657.375 1569.81 657.457 1569.29 657.526C1568.02 657.691 1566.84 657.958 1565.74 658.329C1564.66 658.686 1563.78 659.229 1563.11 659.956C1562.45 660.67 1562.12 661.645 1562.12 662.881C1562.12 664.57 1562.74 665.847 1563.99 666.712C1565.26 667.563 1566.86 667.989 1568.79 667.989ZM1625.14 671.614V639.978H1630V671.614H1625.14ZM1627.61 634.705C1626.66 634.705 1625.84 634.382 1625.16 633.737C1624.48 633.091 1624.15 632.316 1624.15 631.409C1624.15 630.503 1624.48 629.727 1625.16 629.082C1625.84 628.437 1626.66 628.114 1627.61 628.114C1628.55 628.114 1629.36 628.437 1630.04 629.082C1630.72 629.727 1631.07 630.503 1631.07 631.409C1631.07 632.316 1630.72 633.091 1630.04 633.737C1629.36 634.382 1628.55 634.705 1627.61 634.705ZM1652.46 652.583V671.614H1647.6V639.978H1652.3V644.921H1652.71C1653.45 643.314 1654.57 642.024 1656.09 641.049C1657.6 640.06 1659.55 639.566 1661.93 639.566C1664.08 639.566 1665.95 640.005 1667.56 640.884C1669.16 641.749 1670.41 643.067 1671.31 644.838C1672.2 646.596 1672.64 648.82 1672.64 651.512V671.614H1667.78V651.841C1667.78 649.356 1667.14 647.42 1665.85 646.033C1664.56 644.632 1662.79 643.932 1660.53 643.932C1658.98 643.932 1657.6 644.269 1656.37 644.941C1655.17 645.614 1654.21 646.596 1653.51 647.887C1652.81 649.177 1652.46 650.743 1652.46 652.583ZM1712.64 647.063L1708.27 648.299C1707.99 647.571 1707.59 646.864 1707.05 646.177C1706.53 645.477 1705.82 644.9 1704.91 644.447C1704.01 643.994 1702.85 643.767 1701.43 643.767C1699.5 643.767 1697.88 644.214 1696.59 645.106C1695.31 645.985 1694.68 647.104 1694.68 648.463C1694.68 649.672 1695.12 650.626 1695.99 651.326C1696.87 652.027 1698.25 652.61 1700.11 653.077L1704.81 654.23C1707.64 654.917 1709.75 655.967 1711.13 657.382C1712.52 658.782 1713.21 660.588 1713.21 662.799C1713.21 664.611 1712.69 666.231 1711.65 667.659C1710.62 669.087 1709.18 670.213 1707.32 671.037C1705.47 671.861 1703.31 672.273 1700.85 672.273C1697.63 672.273 1694.96 671.573 1692.84 670.172C1690.73 668.772 1689.39 666.726 1688.83 664.034L1693.44 662.881C1693.88 664.584 1694.71 665.861 1695.93 666.712C1697.17 667.563 1698.78 667.989 1700.77 667.989C1703.04 667.989 1704.84 667.508 1706.17 666.547C1707.51 665.572 1708.19 664.405 1708.19 663.046C1708.19 661.947 1707.8 661.027 1707.03 660.286C1706.26 659.531 1705.08 658.968 1703.49 658.597L1698.22 657.361C1695.32 656.675 1693.19 655.61 1691.83 654.169C1690.49 652.713 1689.82 650.894 1689.82 648.711C1689.82 646.926 1690.32 645.346 1691.32 643.973C1692.33 642.6 1693.71 641.522 1695.46 640.74C1697.22 639.957 1699.21 639.566 1701.43 639.566C1704.56 639.566 1707.02 640.252 1708.81 641.625C1710.6 642.998 1711.88 644.811 1712.64 647.063ZM1742.99 639.978V644.097H1726.59V639.978H1742.99ZM1731.37 632.398H1736.23V662.551C1736.23 663.925 1736.43 664.954 1736.83 665.641C1737.24 666.314 1737.76 666.767 1738.4 667C1739.04 667.22 1739.72 667.33 1740.43 667.33C1740.97 667.33 1741.41 667.302 1741.75 667.247C1742.1 667.179 1742.37 667.124 1742.58 667.083L1743.56 671.449C1743.24 671.573 1742.78 671.696 1742.18 671.82C1741.59 671.957 1740.85 672.026 1739.94 672.026C1738.57 672.026 1737.22 671.731 1735.9 671.14C1734.6 670.55 1733.51 669.65 1732.65 668.442C1731.8 667.234 1731.37 665.71 1731.37 663.87V632.398ZM1759 671.614V639.978H1763.86V671.614H1759ZM1761.47 634.705C1760.52 634.705 1759.71 634.382 1759.02 633.737C1758.35 633.091 1758.01 632.316 1758.01 631.409C1758.01 630.503 1758.35 629.727 1759.02 629.082C1759.71 628.437 1760.52 628.114 1761.47 628.114C1762.42 628.114 1763.23 628.437 1763.9 629.082C1764.59 629.727 1764.93 630.503 1764.93 631.409C1764.93 632.316 1764.59 633.091 1763.9 633.737C1763.23 634.382 1762.42 634.705 1761.47 634.705ZM1795.22 639.978V644.097H1778.83V639.978H1795.22ZM1783.61 632.398H1788.47V662.551C1788.47 663.925 1788.67 664.954 1789.06 665.641C1789.48 666.314 1790 666.767 1790.63 667C1791.27 667.22 1791.95 667.33 1792.67 667.33C1793.2 667.33 1793.64 667.302 1793.99 667.247C1794.33 667.179 1794.6 667.124 1794.81 667.083L1795.8 671.449C1795.47 671.573 1795.01 671.696 1794.42 671.82C1793.83 671.957 1793.08 672.026 1792.17 672.026C1790.8 672.026 1789.46 671.731 1788.14 671.14C1786.83 670.55 1785.75 669.65 1784.88 668.442C1784.03 667.234 1783.61 665.71 1783.61 663.87V632.398ZM1831.17 658.679V639.978H1836.03V671.614H1831.17V666.259H1830.84C1830.1 667.865 1828.95 669.232 1827.38 670.358C1825.82 671.47 1823.84 672.026 1821.45 672.026C1819.47 672.026 1817.72 671.593 1816.18 670.728C1814.64 669.85 1813.43 668.531 1812.55 666.774C1811.67 665.002 1811.23 662.771 1811.23 660.08V639.978H1816.09V659.75C1816.09 662.057 1816.74 663.897 1818.03 665.27C1819.34 666.643 1821 667.33 1823.02 667.33C1824.22 667.33 1825.45 667.021 1826.7 666.403C1827.97 665.785 1829.02 664.838 1829.87 663.561C1830.74 662.284 1831.17 660.657 1831.17 658.679ZM1866.49 672.273C1863.52 672.273 1860.97 671.573 1858.83 670.172C1856.68 668.772 1855.04 666.842 1853.88 664.385C1852.73 661.927 1852.15 659.119 1852.15 655.961C1852.15 652.747 1852.74 649.912 1853.92 647.454C1855.12 644.983 1856.78 643.053 1858.91 641.667C1861.05 640.266 1863.55 639.566 1866.41 639.566C1868.63 639.566 1870.63 639.978 1872.42 640.801C1874.2 641.625 1875.67 642.779 1876.81 644.262C1877.95 645.745 1878.65 647.475 1878.93 649.452H1874.07C1873.7 648.01 1872.87 646.733 1871.6 645.621C1870.33 644.495 1868.63 643.932 1866.49 643.932C1864.59 643.932 1862.93 644.426 1861.5 645.415C1860.09 646.39 1858.98 647.77 1858.19 649.555C1857.4 651.326 1857.01 653.407 1857.01 655.796C1857.01 658.24 1857.4 660.368 1858.17 662.181C1858.95 663.993 1860.05 665.401 1861.46 666.403C1862.89 667.405 1864.57 667.907 1866.49 667.907C1867.75 667.907 1868.9 667.687 1869.93 667.247C1870.96 666.808 1871.83 666.176 1872.54 665.353C1873.26 664.529 1873.76 663.54 1874.07 662.387H1878.93C1878.65 664.254 1877.97 665.936 1876.89 667.433C1875.82 668.916 1874.4 670.097 1872.63 670.975C1870.87 671.841 1868.82 672.273 1866.49 672.273ZM1894.73 671.614V639.978H1899.59V671.614H1894.73ZM1897.21 634.705C1896.26 634.705 1895.44 634.382 1894.75 633.737C1894.08 633.091 1893.74 632.316 1893.74 631.409C1893.74 630.503 1894.08 629.727 1894.75 629.082C1895.44 628.437 1896.26 628.114 1897.21 628.114C1898.15 628.114 1898.96 628.437 1899.64 629.082C1900.32 629.727 1900.67 630.503 1900.67 631.409C1900.67 632.316 1900.32 633.091 1899.64 633.737C1898.96 634.382 1898.15 634.705 1897.21 634.705ZM1930.05 672.273C1927.19 672.273 1924.69 671.593 1922.53 670.234C1920.39 668.875 1918.71 666.973 1917.51 664.529C1916.31 662.085 1915.71 659.229 1915.71 655.961C1915.71 652.665 1916.31 649.788 1917.51 647.331C1918.71 644.873 1920.39 642.964 1922.53 641.605C1924.69 640.245 1927.19 639.566 1930.05 639.566C1932.91 639.566 1935.4 640.245 1937.55 641.605C1939.7 642.964 1941.38 644.873 1942.57 647.331C1943.78 649.788 1944.38 652.665 1944.38 655.961C1944.38 659.229 1943.78 662.085 1942.57 664.529C1941.38 666.973 1939.7 668.875 1937.55 670.234C1935.4 671.593 1932.91 672.273 1930.05 672.273ZM1930.05 667.907C1932.22 667.907 1934 667.35 1935.4 666.238C1936.81 665.126 1937.84 663.664 1938.51 661.851C1939.19 660.039 1939.52 658.075 1939.52 655.961C1939.52 653.846 1939.19 651.876 1938.51 650.049C1937.84 648.223 1936.81 646.747 1935.4 645.621C1934 644.495 1932.22 643.932 1930.05 643.932C1927.88 643.932 1926.1 644.495 1924.69 645.621C1923.29 646.747 1922.26 648.223 1921.58 650.049C1920.91 651.876 1920.58 653.846 1920.58 655.961C1920.58 658.075 1920.91 660.039 1921.58 661.851C1922.26 663.664 1923.29 665.126 1924.69 666.238C1926.1 667.35 1927.88 667.907 1930.05 667.907ZM1965.37 652.583V671.614H1960.5V639.978H1965.2V644.921H1965.61C1966.35 643.314 1967.48 642.024 1968.99 641.049C1970.5 640.06 1972.45 639.566 1974.84 639.566C1976.98 639.566 1978.86 640.005 1980.46 640.884C1982.07 641.749 1983.32 643.067 1984.21 644.838C1985.1 646.596 1985.55 648.82 1985.55 651.512V671.614H1980.69V651.841C1980.69 649.356 1980.04 647.42 1978.75 646.033C1977.46 644.632 1975.69 643.932 1973.44 643.932C1971.89 643.932 1970.5 644.269 1969.28 644.941C1968.07 645.614 1967.12 646.596 1966.42 647.887C1965.72 649.177 1965.37 650.743 1965.37 652.583ZM2012.44 672.355C2010.44 672.355 2008.62 671.978 2006.98 671.223C2005.35 670.454 2004.05 669.348 2003.09 667.907C2002.13 666.451 2001.65 664.693 2001.65 662.634C2001.65 660.821 2002.01 659.352 2002.72 658.226C2003.43 657.086 2004.39 656.194 2005.58 655.549C2006.78 654.903 2008.1 654.423 2009.54 654.107C2010.99 653.777 2012.46 653.516 2013.93 653.324C2015.85 653.077 2017.41 652.892 2018.6 652.768C2019.81 652.631 2020.69 652.404 2021.24 652.088C2021.8 651.773 2022.08 651.223 2022.08 650.441V650.276C2022.08 648.244 2021.53 646.665 2020.41 645.539C2019.31 644.413 2017.65 643.85 2015.41 643.85C2013.09 643.85 2011.27 644.358 2009.95 645.374C2008.63 646.39 2007.7 647.475 2007.17 648.628L2002.56 646.98C2003.38 645.058 2004.48 643.561 2005.85 642.49C2007.24 641.406 2008.75 640.65 2010.38 640.225C2012.03 639.785 2013.65 639.566 2015.24 639.566C2016.26 639.566 2017.43 639.689 2018.74 639.936C2020.08 640.17 2021.36 640.657 2022.6 641.399C2023.85 642.14 2024.88 643.259 2025.71 644.756C2026.53 646.253 2026.94 648.257 2026.94 650.77V671.614H2022.08V667.33H2021.83C2021.5 668.016 2020.96 668.751 2020.19 669.534C2019.42 670.316 2018.39 670.982 2017.12 671.532C2015.84 672.081 2014.28 672.355 2012.44 672.355ZM2013.18 667.989C2015.11 667.989 2016.73 667.611 2018.04 666.856C2019.38 666.101 2020.38 665.126 2021.05 663.931C2021.74 662.737 2022.08 661.48 2022.08 660.162V655.713C2021.88 655.961 2021.42 656.187 2020.72 656.393C2020.04 656.585 2019.24 656.757 2018.33 656.908C2017.44 657.045 2016.57 657.169 2015.72 657.279C2014.88 657.375 2014.2 657.457 2013.68 657.526C2012.41 657.691 2011.23 657.958 2010.14 658.329C2009.05 658.686 2008.17 659.229 2007.5 659.956C2006.84 660.67 2006.51 661.645 2006.51 662.881C2006.51 664.57 2007.14 665.847 2008.38 666.712C2009.65 667.563 2011.25 667.989 2013.18 667.989ZM2049.37 629.432V671.614H2044.51V629.432H2049.37Z" fill="#7B7B7B"/>
<path fill-rule="evenodd" clip-rule="evenodd" d="M386.484 107.348L381.096 107.348L375.708 107.348V107.405C377.499 107.367 379.296 107.348 381.096 107.348C382.897 107.348 384.693 107.367 386.484 107.405V107.348Z" fill="#D9D9D9"/>
<path d="M538.376 196.45L536.28 193.099L535.598 193.78C536.532 194.662 537.457 195.552 538.376 196.45Z" fill="#36345B"/>
<path fill-rule="evenodd" clip-rule="evenodd" d="M412.882 357.348C412.882 374.903 398.651 389.134 381.097 389.134H349.311V357.348C349.311 339.794 363.542 325.563 381.097 325.563C398.651 325.563 412.882 339.794 412.882 357.348ZM381.14 343.876H381.053C378.844 343.876 377.053 345.667 377.053 347.876V361.516C377.053 363.725 378.844 365.516 381.053 365.516H381.14C383.349 365.516 385.14 363.725 385.14 361.516V347.876C385.14 345.667 383.349 343.876 381.14 343.876ZM381.248 369.229H380.946C378.796 369.229 377.053 370.972 377.053 373.122C377.053 375.271 378.796 377.014 380.946 377.014H381.248C383.397 377.014 385.14 375.271 385.14 373.122C385.14 370.972 383.397 369.229 381.248 369.229Z" fill="#36345B"/>
<path d="M520.601 214.224C519.681 213.328 518.849 212.345 517.913 211.466L520.601 214.224Z" fill="#36345B"/>
<path d="M530.471 224.351C529.522 223.576 528.769 222.652 527.952 221.767L530.471 224.351Z" fill="#36345B"/>
<path d="M549.002 205.82L545.734 203.986C546.554 204.867 547.368 205.754 548.175 206.647L549.002 205.82Z" fill="#36345B"/>
<path d="M407.482 321.897C413.008 325.749 415.916 328.287 420.203 334.619L441.739 313.083C441.022 312.104 440.282 311.143 439.519 310.201L432.333 302.492C431.393 301.615 430.43 300.762 429.445 299.933L407.482 321.897Z" fill="#36345B"/>
<path d="M439.519 310.201L457.221 292.499L474.943 274.776L467.657 267.169L449.975 284.851L432.333 302.492L439.519 310.201Z" fill="#36345B"/>
<path d="M457.221 292.499L439.519 310.201C440.282 311.143 441.022 312.104 441.739 313.083L459.523 295.299C458.772 294.352 458.005 293.418 457.221 292.499Z" fill="#36345B"/>
<path d="M432.333 302.492L449.975 284.851C449.043 283.966 448.095 283.098 447.13 282.249L429.445 299.933C430.43 300.762 431.393 301.615 432.333 302.492Z" fill="#36345B"/>
<path d="M449.975 284.851L467.657 267.169C466.73 266.279 465.79 265.404 464.836 264.543L447.13 282.249C448.095 283.098 449.043 283.966 449.975 284.851Z" fill="#36345B"/>
<path d="M474.943 274.776L457.221 292.499C458.005 293.418 458.772 294.352 459.523 295.299L477.296 277.526C476.525 276.598 475.74 275.681 474.943 274.776Z" fill="#36345B"/>
<path d="M492.651 257.069L474.943 274.776C475.74 275.681 476.525 276.598 477.296 277.526L495.036 259.786C494.252 258.87 493.457 257.965 492.651 257.069Z" fill="#36345B"/>
<path d="M474.943 274.776L492.651 257.069L485.337 249.488L467.657 267.169L474.943 274.776Z" fill="#36345B"/>
<path d="M467.657 267.169L485.337 249.488C484.414 248.595 483.479 247.714 482.533 246.846L464.836 264.543C465.79 265.404 466.73 266.279 467.657 267.169Z" fill="#36345B"/>
<path d="M485.337 249.488L503.017 231.808C502.096 230.913 501.165 230.029 500.224 229.154L482.533 246.846C483.479 247.714 484.414 248.595 485.337 249.488Z" fill="#36345B"/>
<path d="M503.017 231.808L485.337 249.488L492.651 257.069L510.35 239.37L527.952 221.767L520.601 214.224L503.017 231.808Z" fill="#36345B"/>
<path d="M510.35 239.37L492.651 257.069C493.457 257.965 494.252 258.87 495.036 259.786L512.759 242.063C511.965 241.157 511.162 240.259 510.35 239.37Z" fill="#36345B"/>
<path d="M517.913 211.466L500.224 229.154C501.165 230.029 502.096 230.913 503.017 231.808L520.601 214.224L517.913 211.466Z" fill="#36345B"/>
<path d="M512.759 242.063L530.471 224.351L527.952 221.767L510.35 239.37C511.162 240.259 511.965 241.157 512.759 242.063Z" fill="#36345B"/>
<path d="M520.601 214.224L538.376 196.45C537.457 195.552 536.532 194.662 535.598 193.78L517.913 211.466C518.849 212.345 519.681 213.328 520.601 214.224Z" fill="#36345B"/>
<path d="M538.376 196.45L520.601 214.224L527.952 221.767L545.734 203.986L538.376 196.45Z" fill="#36345B"/>
<path d="M545.734 203.986L527.952 221.767C528.769 222.652 529.522 223.576 530.471 224.351L548.175 206.647C547.368 205.754 546.554 204.867 545.734 203.986Z" fill="#36345B"/>
<path fill-rule="evenodd" clip-rule="evenodd" d="M411.625 121.234C411.322 126.615 407.676 131.627 402.812 133.382C399.833 133.097 396.837 132.87 393.825 132.702C389.354 130.308 386.369 125.061 386.664 119.828C386.981 114.2 390.973 109.222 396.179 107.795C398.744 107.948 401.298 108.139 403.842 108.369C408.661 110.49 411.933 115.753 411.625 121.234Z" fill="#36345B"/>
<path fill-rule="evenodd" clip-rule="evenodd" d="M365.634 107.818C363.028 107.977 360.431 108.176 357.847 108.415C353.644 110.361 350.728 114.84 350.447 119.828C350.118 125.657 353.826 131.505 359.148 133.405C362.102 133.119 365.072 132.89 368.058 132.719C372.169 130.562 375.136 126.046 375.407 121.234C375.748 115.191 371.365 109.412 365.634 107.818Z" fill="#36345B"/>
<path fill-rule="evenodd" clip-rule="evenodd" d="M375.407 121.234C375.136 126.046 372.169 130.562 368.058 132.719C365.072 132.89 362.102 133.119 359.148 133.405C312.425 137.928 269.883 156.741 235.948 185.42C234.246 186.858 232.566 188.321 230.909 189.808C229.071 190.688 226.992 191.131 224.814 191.008C217.922 190.62 212.175 184.156 212.563 177.263C212.708 174.696 213.617 172.354 215.058 170.445C216.35 169.297 217.653 168.162 218.969 167.04C257.088 134.534 305.093 113.279 357.847 108.415C360.431 108.176 363.028 107.977 365.634 107.818C371.365 109.412 375.748 115.191 375.407 121.234Z" fill="#36345B"/>
<path fill-rule="evenodd" clip-rule="evenodd" d="M230.909 189.808C229.071 190.688 226.992 191.131 224.814 191.008C217.922 190.62 212.175 184.156 212.563 177.263C212.708 174.696 213.617 172.354 215.058 170.445C216.35 169.297 217.653 168.162 218.969 167.04C220.967 165.927 223.294 165.348 225.747 165.486C232.639 165.874 238.386 172.338 237.998 179.231C237.868 181.522 237.13 183.635 235.948 185.42C234.246 186.858 232.566 188.321 230.909 189.808Z" fill="#36345B"/>
<path fill-rule="evenodd" clip-rule="evenodd" d="M208.869 212.554C209.5 211.177 209.889 209.66 209.979 208.055C210.368 201.163 203.689 195.26 196.796 194.872C194.137 194.722 191.625 195.415 189.521 196.719C187.757 198.82 186.027 200.951 184.331 203.111" fill="#36345B"/>
<path fill-rule="evenodd" clip-rule="evenodd" d="M156.559 342.791C156.698 340.616 156.868 338.449 157.068 336.292C161.422 289.381 180.177 246.648 208.869 212.554C209.5 211.177 209.889 209.66 209.979 208.055C210.368 201.163 203.689 195.26 196.796 194.872C194.137 194.722 191.625 195.415 189.521 196.719C187.757 198.82 186.027 200.951 184.331 203.111C155.366 240.011 136.557 285.262 132.112 334.653C131.933 336.651 131.776 338.656 131.644 340.668C132.667 346.291 137.691 350.687 143.633 351.022C149.311 351.342 154.64 347.875 156.559 342.791Z" fill="#36345B"/>
<path fill-rule="evenodd" clip-rule="evenodd" d="M156.559 342.791C154.64 347.875 149.311 351.342 143.633 351.022C137.691 350.687 132.667 346.291 131.644 340.668C131.776 338.656 131.933 336.651 132.112 334.653C133.932 329.409 139.273 325.737 145.039 326.062C150.895 326.392 155.925 330.759 157.068 336.292C156.868 338.449 156.698 340.616 156.559 342.791Z" fill="#36345B"/>
<path fill-rule="evenodd" clip-rule="evenodd" d="M157.08 378.526C156.094 384.831 150.132 389.437 143.633 389.071C138.446 388.779 133.934 385.41 132.184 380.823C131.98 378.631 131.804 376.432 131.657 374.224C132.911 368.196 138.741 363.756 145.039 364.111C150.414 364.414 155.039 368.11 156.632 372.992C156.759 374.843 156.908 376.688 157.08 378.526Z" fill="#36345B"/>
<path fill-rule="evenodd" clip-rule="evenodd" d="M210.072 508.409C209.683 515.302 203.04 520.575 196.147 520.186C193.521 520.039 191.13 519.09 189.198 517.592C187.994 516.152 186.807 514.698 185.635 513.231C184.712 511.361 184.244 509.234 184.37 507.003C184.758 500.111 191.402 494.838 198.294 495.226C201.021 495.38 203.493 496.396 205.462 497.994C206.513 499.305 207.579 500.604 208.658 501.89C209.679 503.829 210.204 506.062 210.072 508.409Z" fill="#36345B"/>
<path fill-rule="evenodd" clip-rule="evenodd" d="M145.039 364.111C150.414 364.414 155.039 368.11 156.632 372.992C156.759 374.843 156.908 376.688 157.08 378.526C161.279 423.506 178.719 464.641 205.462 497.994C206.513 499.305 207.579 500.604 208.658 501.89C209.679 503.829 210.204 506.062 210.072 508.409C209.683 515.302 203.04 520.575 196.147 520.186C193.521 520.039 191.13 519.09 189.198 517.592C187.994 516.152 186.807 514.698 185.635 513.231C156.085 476.228 136.824 430.647 132.184 380.823C131.98 378.631 131.804 376.432 131.657 374.224C132.911 368.196 138.741 363.756 145.039 364.111Z" fill="#36345B"/>
<path fill-rule="evenodd" clip-rule="evenodd" d="M367.012 581.914C372.266 583.726 375.943 589.072 375.618 594.846C375.3 600.489 371.375 605.494 366.18 606.91C363.649 606.761 361.128 606.575 358.617 606.351C304.133 601.496 254.678 579.161 215.898 544.994C214.927 544.138 213.962 543.275 213.005 542.405C211.094 540.069 210.018 537.039 210.201 533.789C210.59 526.897 216.941 521.624 223.834 522.012C226.079 522.139 228.153 522.85 229.915 523.991C230.864 524.853 231.821 525.707 232.785 526.552C267.658 557.144 312.069 577.127 360.978 581.461C362.982 581.638 364.993 581.789 367.012 581.914Z" fill="#36345B"/>
<path fill-rule="evenodd" clip-rule="evenodd" d="M375.618 594.846C375.3 600.489 371.375 605.494 366.18 606.91C363.649 606.761 361.128 606.575 358.617 606.351" fill="#36345B"/>
<path fill-rule="evenodd" clip-rule="evenodd" d="M386.664 119.828C386.981 114.2 390.973 109.222 396.179 107.795C398.744 107.948 401.298 108.139 403.842 108.369C459.338 113.374 509.604 136.515 548.667 171.819C549.489 172.562 550.306 173.31 551.118 174.063C552.785 175.61 554.43 177.18 556.054 178.771L563.421 186.298C564.81 187.778 566.181 189.275 567.534 190.788C568.538 191.911 569.533 193.044 570.517 194.186C603.391 232.316 624.947 280.479 629.97 333.459C630.111 334.948 630.239 336.442 630.354 337.939C630.33 337.625 630.305 337.311 630.28 336.997C629.892 343.89 623.806 348.77 616.913 348.382C611.262 348.063 606.601 343.839 605.32 338.528C601.135 287.981 580.24 242.176 548.175 206.647L549.002 205.82L545.734 203.986L538.376 196.45L536.28 193.099L535.598 193.78C500.23 160.36 454.027 138.287 402.812 133.382C399.833 133.097 396.837 132.87 393.825 132.702C389.354 130.308 386.369 125.061 386.664 119.828Z" fill="#36345B"/>
<path fill-rule="evenodd" clip-rule="evenodd" d="M630.28 336.997C629.892 343.89 623.806 348.77 616.913 348.382C611.262 348.063 606.601 343.839 605.32 338.528C605.22 337.317 605.11 336.109 604.991 334.903C605.379 328.011 611.427 323.033 618.32 323.421C624.005 323.742 628.713 328.081 629.97 333.459C630.081 334.636 630.185 335.815 630.28 336.997Z" fill="#36345B"/>
<path fill-rule="evenodd" clip-rule="evenodd" d="M235.611 535.195C235.223 542.088 228.871 547.361 221.979 546.973C219.733 546.846 217.66 546.135 215.898 544.994C214.927 544.138 213.962 543.275 213.005 542.405C211.094 540.069 210.018 537.039 210.201 533.789C210.59 526.897 216.941 521.624 223.834 522.012C226.079 522.139 228.153 522.85 229.915 523.991C230.864 524.853 231.821 525.707 232.785 526.552C234.71 528.891 235.795 531.932 235.611 535.195Z" fill="#36345B"/>
<path d="M181.471 369.69C181.808 375.231 182.371 380.711 183.151 386.121C185.722 388.992 189.458 390.799 193.616 390.799C200.535 390.799 206.286 385.796 207.449 379.211C207.132 376.669 206.87 374.11 206.663 371.536C204.704 366.639 200.068 363.103 194.564 362.736H192.668C187.884 363.055 183.755 365.769 181.471 369.69Z" fill="#FE690C"/>
<path d="M231.673 486.29C239.431 486.29 245.72 480.001 245.72 472.243C245.72 470.397 245.364 468.634 244.717 467.019C243.123 465.04 241.571 463.025 240.063 460.976C237.722 459.23 234.818 458.196 231.673 458.196C223.915 458.196 217.626 464.485 217.626 472.243C217.626 472.366 217.628 472.489 217.631 472.611C220.82 477.126 224.191 481.502 227.734 485.73C228.984 486.095 230.305 486.29 231.673 486.29Z" fill="#FE690C"/>
<path fill-rule="evenodd" clip-rule="evenodd" d="M217.626 472.243C217.626 472.366 217.628 472.489 217.631 472.611C199.856 447.449 187.744 418 183.151 386.121C185.722 388.992 189.458 390.799 193.616 390.799C200.535 390.799 206.286 385.796 207.449 379.211C211.231 409.564 222.788 437.504 240.063 460.976C237.722 459.23 234.818 458.196 231.673 458.196C223.915 458.196 217.626 464.485 217.626 472.243ZM192.668 362.736C192.981 362.715 193.297 362.705 193.616 362.705C193.935 362.705 194.251 362.715 194.564 362.736H192.668Z" fill="#FE690C"/>
<path d="M259.767 514.384C267.525 514.384 273.814 508.095 273.814 500.337C273.814 498.329 273.393 496.42 272.634 494.692C269.414 492.146 266.285 489.488 263.254 486.726C262.139 486.441 260.971 486.29 259.767 486.29C252.009 486.29 245.72 492.579 245.72 500.337C245.72 502.138 246.059 503.86 246.677 505.443C249.968 508.432 253.359 511.312 256.845 514.079C257.787 514.279 258.765 514.384 259.767 514.384Z" fill="#FE690C"/>
<path fill-rule="evenodd" clip-rule="evenodd" d="M352.194 555.275C349.23 552.7 347.356 548.903 347.356 544.667C347.356 537.886 352.161 532.227 358.553 530.91C326.352 526.768 296.892 513.875 272.634 494.692C273.393 496.42 273.814 498.329 273.814 500.337C273.814 508.095 267.525 514.384 259.767 514.384C258.765 514.384 257.787 514.279 256.845 514.079C283.835 535.506 316.488 550.107 352.194 555.275Z" fill="#FE690C"/>
<path d="M368.239 556.942C372.541 554.541 375.45 549.944 375.45 544.667C375.45 538.909 371.984 533.959 367.025 531.791C364.181 531.565 361.357 531.27 358.553 530.91C352.161 532.227 347.356 537.886 347.356 544.667C347.356 548.903 349.23 552.7 352.194 555.275C357.479 556.04 362.829 556.598 368.239 556.942Z" fill="#FE690C"/>
<path d="M181.49 344.688C183.929 348.847 188.447 351.64 193.616 351.64C199.566 351.64 204.651 347.941 206.699 342.717C206.905 340.224 207.164 337.745 207.474 335.282C206.372 328.624 200.587 323.546 193.616 323.546C189.491 323.546 185.781 325.324 183.211 328.156C182.415 333.598 181.839 339.112 181.49 344.688Z" fill="#FE690C"/>
<path fill-rule="evenodd" clip-rule="evenodd" d="M193.616 323.546C189.491 323.546 185.781 325.324 183.211 328.156C187.971 295.609 200.57 265.607 219.03 240.129C218.832 241.068 218.728 242.041 218.728 243.039C218.728 250.797 225.017 257.086 232.775 257.086C234.817 257.086 236.758 256.65 238.508 255.866C222.132 278.834 211.167 305.927 207.474 335.282C206.372 328.624 200.587 323.546 193.616 323.546Z" fill="#FE690C"/>
<path d="M218.728 243.039C218.728 250.797 225.017 257.086 232.775 257.086C234.817 257.086 236.758 256.65 238.508 255.866C241.086 252.252 243.797 248.739 246.635 245.336C246.758 244.589 246.822 243.821 246.822 243.039C246.822 235.281 240.533 228.992 232.775 228.992C230.511 228.992 228.373 229.527 226.479 230.479C223.901 233.617 221.416 236.835 219.03 240.129C218.832 241.068 218.728 242.041 218.728 243.039Z" fill="#FE690C"/>
<path d="M246.822 214.945C246.822 222.703 253.111 228.992 260.869 228.992C261.321 228.992 261.769 228.971 262.211 228.929C266.124 225.304 270.204 221.856 274.436 218.598C274.749 217.433 274.916 216.209 274.916 214.945C274.916 207.187 268.627 200.898 260.869 200.898C258.681 200.898 256.611 201.398 254.765 202.29C252.955 203.767 251.171 205.274 249.414 206.812C247.782 209.107 246.822 211.914 246.822 214.945Z" fill="#FE690C"/>
<path fill-rule="evenodd" clip-rule="evenodd" d="M356.517 184.061C351.119 182.101 347.264 176.928 347.264 170.853C347.264 166.034 349.691 161.781 353.39 159.251C316.293 164.392 282.448 179.708 254.765 202.29C256.611 201.398 258.681 200.898 260.869 200.898C268.627 200.898 274.916 207.187 274.916 214.945C274.916 216.209 274.749 217.433 274.436 218.598C297.827 200.59 325.901 188.364 356.517 184.061Z" fill="#FE690C"/>
<path d="M368.739 182.778C372.713 180.297 375.358 175.884 375.358 170.853C375.358 164.989 371.764 159.964 366.659 157.86C362.194 158.179 357.769 158.644 353.39 159.251C349.691 161.781 347.264 166.034 347.264 170.853C347.264 176.928 351.119 182.101 356.517 184.061C360.548 183.494 364.624 183.065 368.739 182.778Z" fill="#FE690C"/>
<path fill-rule="evenodd" clip-rule="evenodd" d="M392.9 182.74C397.081 183.019 401.222 183.444 405.318 184.011C410.644 182.015 414.435 176.877 414.435 170.853C414.435 165.979 411.953 161.685 408.184 159.166C403.869 158.582 399.51 158.135 395.112 157.831C390.565 159.675 387.203 163.831 386.484 168.841C386.39 169.498 386.341 170.17 386.341 170.853C386.341 171.537 386.39 172.208 386.484 172.866C387.081 177.023 389.497 180.592 392.9 182.74Z" fill="#FE690C"/>
<path d="M493.906 220.477C501.664 220.477 507.953 214.188 507.953 206.43C507.953 204.951 507.724 203.525 507.3 202.186C503.078 198.748 498.712 195.477 494.213 192.387C494.157 192.386 494.102 192.385 494.046 192.384C494 192.384 493.953 192.383 493.906 192.383C486.148 192.383 479.859 198.672 479.859 206.43C479.859 209.56 480.882 212.45 482.613 214.785C484.806 216.35 486.962 217.964 489.078 219.626C490.584 220.177 492.21 220.477 493.906 220.477Z" fill="#FE690C"/>
<path fill-rule="evenodd" clip-rule="evenodd" d="M386.484 172.866V168.841C387.203 163.831 390.565 159.675 395.112 157.831C399.51 158.135 403.869 158.582 408.184 159.166C439.806 163.448 469.081 175.12 494.213 192.387C494.157 192.386 494.102 192.385 494.046 192.384C494 192.384 493.953 192.383 493.906 192.383C486.148 192.383 479.859 198.672 479.859 206.43C479.859 209.56 480.882 212.45 482.613 214.785C460.201 198.797 433.859 187.963 405.318 184.011C401.222 183.444 397.081 183.019 392.9 182.74C389.497 180.592 387.081 177.023 386.484 172.866Z" fill="#FE690C"/>
<path d="M534.416 263.695C542.174 263.695 548.463 257.406 548.463 249.648C548.463 248.948 548.412 248.26 548.313 247.587C545.997 244.066 543.573 240.622 541.045 237.261C539.071 236.202 536.814 235.601 534.416 235.601C526.658 235.601 520.369 241.89 520.369 249.648C520.369 250.288 520.412 250.918 520.495 251.536C523.102 254.966 525.586 258.495 527.94 262.117C529.878 263.125 532.08 263.695 534.416 263.695Z" fill="#FE690C"/>
<path fill-rule="evenodd" clip-rule="evenodd" d="M554.322 332.336C556.443 327.268 561.449 323.708 567.286 323.708C572.383 323.708 576.846 326.423 579.308 330.486C575.239 300.175 564.38 272.015 548.313 247.587C548.412 248.26 548.463 248.948 548.463 249.648C548.463 257.406 542.174 263.695 534.416 263.695C532.08 263.695 529.878 263.125 527.94 262.117C541.444 282.896 550.656 306.721 554.322 332.336Z" fill="#FE690C"/>
<path d="M567.286 323.708C561.449 323.708 556.443 327.268 554.322 332.336C554.954 336.748 555.42 341.213 555.716 345.724C558.25 349.396 562.487 351.802 567.286 351.802C573.415 351.802 578.628 347.876 580.546 342.401C580.25 338.395 579.836 334.422 579.308 330.486C576.846 326.423 572.383 323.708 567.286 323.708Z" fill="#FE690C"/>
<path d="M376.092 221.078C376.092 222.143 375.958 223.177 375.708 224.163C374.591 228.56 371.14 232.022 366.751 233.163C365.742 233.425 364.683 233.564 363.592 233.564C356.688 233.564 351.092 227.982 351.092 221.078C351.092 215.22 355.122 210.145 360.561 208.742C361.531 208.492 362.546 208.359 363.592 208.359C369.43 208.359 374.334 212.519 375.708 217.978C375.958 218.974 376.092 220.013 376.092 221.078Z" fill="#FE690C"/>
<path d="M411.461 221.078C411.461 227.982 405.864 233.578 398.961 233.578C397.947 233.578 396.961 233.457 396.017 233.23C390.776 231.965 386.823 227.397 386.484 221.852C386.469 221.596 386.461 221.338 386.461 221.078C386.461 220.818 386.469 220.56 386.484 220.304C386.884 213.748 392.317 208.401 398.961 208.401C405.864 208.401 411.461 214.175 411.461 221.078Z" fill="#FE690C"/>
<path fill-rule="evenodd" clip-rule="evenodd" d="M375.708 493.958C375.708 488.088 371.901 482.923 366.518 481.507C343.381 478.82 322.172 469.815 304.66 456.262C302.788 454.813 300.957 453.312 299.172 451.761C297.679 451.131 296.038 450.783 294.317 450.783C287.413 450.783 281.278 456.963 281.278 463.867C281.278 466.857 282.328 469.602 284.079 471.753C285.349 472.831 286.637 473.888 287.942 474.924C308.217 491.009 332.748 501.961 359.572 505.816C361.171 506.045 362.778 506.25 364.393 506.429C370.872 505.988 375.708 500.573 375.708 493.958Z" fill="#FE690C"/>
<path d="M268.778 449.65C275.681 449.65 281.278 443.312 281.278 436.409C281.278 434.407 280.807 432.515 279.971 430.838C279.23 429.82 278.504 428.791 277.794 427.751C275.519 425.383 272.321 423.909 268.778 423.909C261.874 423.909 256.278 430.246 256.278 437.15C256.278 438.877 256.628 440.522 257.261 442.019L257.406 442.23C258.38 443.646 259.378 445.045 260.398 446.426C262.615 448.43 265.554 449.65 268.778 449.65Z" fill="#FE690C"/>
<path d="M244.897 362.736C237.994 362.736 232.126 368.113 232.126 375.016C232.244 376.018 232.371 377.017 232.508 378.012C233.915 383.396 239.029 387.223 244.893 387.223C251.596 387.223 257.067 381.946 257.379 375.321C257.177 373.918 256.998 372.508 256.843 371.09C255.274 366.109 250.521 362.736 244.897 362.736Z" fill="#FE690C"/>
<path fill-rule="evenodd" clip-rule="evenodd" d="M257.379 375.321C260.15 394.562 267.303 412.387 277.794 427.751C275.519 425.383 272.321 423.909 268.778 423.909C261.874 423.909 256.278 430.246 256.278 437.15C256.278 438.877 256.628 440.522 257.261 442.019C244.438 423.299 235.748 401.526 232.508 378.012C233.915 383.396 239.029 387.223 244.893 387.223C251.596 387.223 257.067 381.946 257.379 375.321Z" fill="#FE690C"/>
<path d="M232.232 338.802C232.232 345.705 237.99 351.302 244.893 351.302C250.836 351.302 255.811 347.154 257.08 341.595C257.173 340.85 257.274 340.106 257.381 339.364C257.389 339.178 257.393 338.99 257.393 338.802C257.393 331.898 251.797 326.302 244.893 326.302C239.11 326.302 234.132 330.228 232.667 335.561C232.515 336.61 232.373 337.662 232.242 338.718L232.232 338.802Z" fill="#FE690C"/>
<path fill-rule="evenodd" clip-rule="evenodd" d="M258.152 271.392C245.047 290.101 236.105 311.939 232.667 335.561C234.132 330.228 239.11 326.302 244.893 326.302C251.797 326.302 257.393 331.898 257.393 338.802C257.393 338.99 257.389 339.178 257.381 339.364C260.215 319.696 267.628 301.508 278.504 285.916C276.263 288.047 273.231 289.355 269.893 289.355C262.99 289.355 256.898 283.759 256.898 276.855C256.898 274.896 257.349 273.043 258.152 271.392ZM258.152 271.392C258.785 270.09 259.638 268.915 260.663 267.914C259.81 269.061 258.973 270.22 258.152 271.392ZM275.643 265.956L281.001 271.313C279.804 269.057 277.914 267.187 275.643 265.956Z" fill="#FE690C"/>
<path d="M256.898 276.855C256.898 283.759 262.99 289.355 269.893 289.355C273.231 289.355 276.263 288.047 278.504 285.916C279.378 284.664 280.274 283.429 281.191 282.21C281.962 280.587 282.393 278.772 282.393 276.855C282.393 274.865 281.887 272.983 281.001 271.313L275.643 265.956C273.764 264.937 271.623 264.355 269.398 264.355C265.999 264.355 262.916 265.712 260.663 267.914C259.81 269.061 258.973 270.22 258.152 271.392C257.349 273.043 256.898 274.896 256.898 276.855Z" fill="#FE690C"/>
<path d="M306.06 251.855C306.06 244.952 300.464 238.366 293.56 238.366C291.639 238.366 289.82 238.8 288.194 239.574C286.608 240.826 285.049 242.109 283.517 243.423C281.973 245.502 281.06 248.078 281.06 250.866C281.06 254.118 282.302 257.299 284.336 259.755L286.175 261.594C288.244 263.301 290.798 264.355 293.56 264.355C295.482 264.355 297.302 263.922 298.929 263.147C300.476 261.796 302.056 260.484 303.669 259.21C305.173 257.146 306.06 254.604 306.06 251.855Z" fill="#FE690C"/>
<path fill-rule="evenodd" clip-rule="evenodd" d="M286.175 261.594C285.509 261.044 284.893 260.426 284.336 259.755L286.175 261.594Z" fill="#FE690C"/>
<path d="M293.56 238.366C300.464 238.366 306.06 244.952 306.06 251.855C306.06 254.604 305.173 257.146 303.669 259.21C320.634 245.806 341.158 236.708 363.592 233.564C356.688 233.564 351.092 227.982 351.092 221.078C351.092 215.22 355.122 210.145 360.561 208.742C333.462 212.452 308.669 223.4 288.194 239.574C289.82 238.8 291.639 238.366 293.56 238.366Z" fill="#FE690C"/>
<path d="M459.512 231.687C452.609 231.687 446.385 237.283 446.385 244.187C446.385 247.706 447.839 250.885 450.179 253.157C451.341 253.929 452.489 254.719 453.623 255.529C455.223 256.272 457.005 256.687 458.885 256.687C461.933 256.687 464.848 255.596 467.154 253.783L469.467 251.458C471.052 249.409 472.012 246.899 472.012 244.187C472.012 240.69 470.576 237.529 468.262 235.26C467.121 234.444 465.968 233.643 464.803 232.858C463.197 232.107 461.403 231.687 459.512 231.687Z" fill="#FE690C"/>
<path fill-rule="evenodd" clip-rule="evenodd" d="M386.484 220.304V221.852C386.823 227.397 390.776 231.965 396.017 233.23C415.873 235.592 434.301 242.608 450.179 253.157C447.839 250.885 446.385 247.706 446.385 244.187C446.385 237.283 452.609 231.687 459.512 231.687C461.403 231.687 463.197 232.107 464.803 232.858C445.557 219.892 423.141 211.271 398.961 208.401C392.317 208.401 386.884 213.748 386.484 220.304ZM469.467 251.458C468.798 252.321 468.019 253.103 467.154 253.783L469.467 251.458Z" fill="#FE690C"/>
<path fill-rule="evenodd" clip-rule="evenodd" d="M306.817 463.283C306.817 470.187 300.681 476.367 293.778 476.367C291.67 476.367 289.684 475.845 287.942 474.924C286.637 473.888 285.349 472.831 284.079 471.753C282.328 469.602 281.278 466.857 281.278 463.867C281.278 456.963 287.413 450.783 294.317 450.783C296.038 450.783 297.679 451.131 299.172 451.761C300.957 453.312 302.788 454.813 304.66 456.262C306.021 458.263 306.817 460.68 306.817 463.283Z" fill="#FE690C"/>
<path fill-rule="evenodd" clip-rule="evenodd" d="M375.708 493.958C375.708 500.573 370.872 505.988 364.393 506.429C362.778 506.25 361.171 506.045 359.572 505.816C354.613 504.158 351.038 499.475 351.038 493.958C351.038 487.054 356.634 481.125 363.538 481.125C364.528 481.264 365.521 481.391 366.518 481.507C371.901 482.923 375.708 488.088 375.708 493.958Z" fill="#FE690C"/>
<path fill-rule="evenodd" clip-rule="evenodd" d="M517.15 351.96C511.693 351.96 507.054 348.464 505.348 343.59L524.338 349.786C522.251 351.157 519.761 351.96 517.15 351.96Z" fill="#FE690C"/>
<path d="M510.391 284.241C510.391 291.144 504.264 296.741 497.361 296.741C493.628 296.741 490.278 295.105 487.988 292.511C496.38 306.318 502.174 321.88 504.687 338.517C505.208 332.053 511.023 326.948 517.609 326.948C523.225 326.948 527.976 330.651 529.553 335.749C526.649 315.61 519.744 296.766 509.67 280.046C510.137 281.357 510.391 282.769 510.391 284.241Z" fill="#FE690C"/>
<path fill-rule="evenodd" clip-rule="evenodd" d="M530.099 339.951C529.924 344.036 527.634 347.62 524.338 349.786C522.251 351.157 519.761 351.96 517.15 351.96C511.693 351.96 507.054 348.464 505.348 343.59C505.162 341.888 504.941 340.197 504.687 338.517C505.208 332.053 511.023 326.948 517.609 326.948C523.225 326.948 527.976 330.651 529.553 335.749C529.754 337.144 529.936 338.545 530.099 339.951Z" fill="#FE690C"/>
<path fill-rule="evenodd" clip-rule="evenodd" d="M510.391 284.241C510.391 291.144 504.264 296.741 497.361 296.741C493.628 296.741 490.278 295.105 487.988 292.511C487.291 291.365 486.577 290.231 485.844 289.11C485.211 287.614 484.861 285.968 484.861 284.241C484.861 277.337 490.988 271.741 497.891 271.741C501.38 271.741 504.535 273.17 506.802 275.475C507.785 276.98 508.741 278.504 509.67 280.046C510.137 281.357 510.391 282.769 510.391 284.241Z" fill="#FE690C"/>
<path fill-rule="evenodd" clip-rule="evenodd" d="M455.086 344.464C457.018 348.87 461.419 351.948 466.539 351.948C473.442 351.948 479.49 346.351 479.49 339.448L479.49 339.395C478.072 331.578 475.746 324.077 472.625 317.005C472.056 315.716 471.46 314.441 470.839 313.181C468.582 309.93 464.822 307.802 460.564 307.802C457.817 307.802 455.214 308.688 453.077 310.191L449.973 313.257C448.533 315.263 447.675 317.689 447.675 320.302C447.675 321.342 447.802 322.353 448.042 323.319C448.774 324.755 449.462 326.218 450.103 327.705C452.385 333.004 454.074 338.618 455.086 344.464Z" fill="#FB9D75"/>
<path fill-rule="evenodd" clip-rule="evenodd" d="M473.064 320.302C473.064 322.98 472.164 325.461 470.658 327.495C468.283 330.705 464.401 332.802 460.175 332.802C458.886 332.802 457.643 332.607 456.473 332.245C453.892 331.445 451.668 329.832 450.103 327.705C449.462 326.218 448.774 324.755 448.042 323.319C447.802 322.353 447.675 321.342 447.675 320.302C447.675 317.689 448.533 315.263 449.973 313.257C450.824 312.073 451.877 311.035 453.077 310.191C455.214 308.688 457.817 307.802 460.564 307.802C464.822 307.802 468.582 309.93 470.839 313.181C471.46 314.441 472.056 315.716 472.625 317.005C472.912 318.056 473.064 319.161 473.064 320.302Z" fill="#FB9D75"/>
<path fill-rule="evenodd" clip-rule="evenodd" d="M470.658 327.495C468.283 330.705 464.401 332.802 460.175 332.802C458.886 332.802 457.643 332.607 456.473 332.245C458.867 329.04 462.768 326.948 466.99 326.948C468.266 326.948 469.498 327.139 470.658 327.495Z" fill="#FB9D75"/>
<path fill-rule="evenodd" clip-rule="evenodd" d="M435.692 280.043C435.692 286.947 429.422 293.127 422.519 293.127C421.371 293.127 420.259 292.972 419.202 292.682C417.596 291.736 415.952 290.848 414.272 290.021C411.665 287.73 410.019 284.371 410.019 280.627C410.019 273.723 416.289 267.543 423.192 267.543C424.019 267.543 424.827 267.623 425.609 267.776C427.853 268.894 430.05 270.094 432.195 271.371C434.361 273.619 435.692 276.676 435.692 280.043Z" fill="#FB9D75"/>
<path fill-rule="evenodd" clip-rule="evenodd" d="M411.907 271.521C411.907 278.425 406.311 284.577 399.407 284.577C397.729 284.158 396.027 283.795 394.306 283.492C389.945 281.54 386.907 277.163 386.907 272.077C386.907 265.173 392.504 259.021 399.407 259.021C401.121 259.338 402.818 259.699 404.5 260.102C408.865 262.051 411.907 266.431 411.907 271.521Z" fill="#FB9D75"/>
<path fill-rule="evenodd" clip-rule="evenodd" d="M404.5 260.102C402.818 259.699 401.121 259.338 399.407 259.021C392.504 259.021 386.907 265.173 386.907 272.077C386.907 277.163 389.945 281.54 394.306 283.492C401.349 284.734 408.054 286.96 414.272 290.021C415.952 290.848 417.596 291.736 419.202 292.682C420.259 292.972 421.371 293.127 422.519 293.127C429.422 293.127 435.692 286.947 435.692 280.043C435.692 276.676 434.361 273.619 432.195 271.371C430.05 270.094 427.853 268.894 425.609 267.776C418.959 264.466 411.889 261.874 404.5 260.102Z" fill="#FB9D75"/>
<path fill-rule="evenodd" clip-rule="evenodd" d="M375.708 272.28C375.708 277.064 373.019 281.221 369.071 283.322C366.784 283.694 364.532 284.169 362.319 284.742C355.863 284.192 351.106 277.716 351.106 271.112C351.106 266.355 353.763 262.219 357.674 260.107C360.006 259.547 362.369 259.069 364.762 258.676C371.082 259.379 375.708 265.767 375.708 272.28Z" fill="#FB9D75"/>
<path fill-rule="evenodd" clip-rule="evenodd" d="M375.708 272.28C375.708 277.064 373.019 281.221 369.071 283.322C366.784 283.694 364.532 284.169 362.319 284.742C353.939 286.914 346.128 290.498 339.155 295.225C337.92 296.062 336.711 296.936 335.529 297.843C333.899 298.622 332.074 299.058 330.147 299.058C323.244 299.058 317.019 293.126 317.019 286.222C317.019 283.207 318.086 280.441 319.864 278.282C321.522 276.996 323.222 275.761 324.961 274.579C334.761 267.919 345.806 262.955 357.674 260.107C360.006 259.547 362.369 259.069 364.762 258.676C371.082 259.379 375.708 265.767 375.708 272.28Z" fill="#FB9D75"/>
<path fill-rule="evenodd" clip-rule="evenodd" d="M335.529 297.843C333.899 298.622 332.074 299.058 330.147 299.058C323.244 299.058 317.019 293.126 317.019 286.222C317.019 283.207 318.086 280.441 319.864 278.282C321.522 276.996 323.222 275.761 324.961 274.579C326.373 274.026 327.91 273.722 329.519 273.722C336.422 273.722 342.647 279.655 342.647 286.558C342.647 289.923 341.318 292.978 339.155 295.225C337.92 296.062 336.711 296.936 335.529 297.843Z" fill="#FB9D75"/>
<path fill-rule="evenodd" clip-rule="evenodd" d="M317.468 314.91C317.468 316.254 317.256 317.548 316.863 318.761C316.032 320.145 315.243 321.557 314.501 322.996C312.208 325.697 308.788 327.41 304.968 327.41C298.064 327.41 291.749 321.814 291.749 314.91C291.749 313.701 291.921 312.532 292.241 311.426C293.089 309.79 293.98 308.18 294.913 306.598C297.203 304.028 300.537 302.41 304.249 302.41C311.153 302.41 317.468 308.007 317.468 314.91Z" fill="#FB9D75"/>
<path fill-rule="evenodd" clip-rule="evenodd" d="M307.355 344.096C308.688 336.621 311.128 329.529 314.501 322.996C315.243 321.557 316.032 320.145 316.863 318.761C317.256 317.548 317.468 316.254 317.468 314.91C317.468 308.007 311.153 302.41 304.249 302.41C300.537 302.41 297.203 304.028 294.913 306.598C293.98 308.18 293.089 309.79 292.241 311.426C288.604 318.448 285.776 325.957 283.878 333.829C283.397 335.826 282.975 337.847 282.615 339.889C282.671 339.574 282.728 339.259 282.786 338.945C282.786 345.849 289.059 351.445 295.963 351.445C301.03 351.445 305.393 348.43 307.355 344.096Z" fill="#FB9D75"/>
<path fill-rule="evenodd" clip-rule="evenodd" d="M307.355 344.096C305.393 348.43 301.03 351.445 295.963 351.445C289.059 351.445 282.786 345.849 282.786 338.945C283.107 337.224 283.471 335.518 283.878 333.829C285.833 329.476 290.206 326.445 295.286 326.445C302.19 326.445 308.463 332.042 308.463 338.945C308.035 340.64 307.665 342.358 307.355 344.096Z" fill="#FB9D75"/>
<path fill-rule="evenodd" clip-rule="evenodd" d="M308.449 375.698C308.449 382.601 302.292 388.198 295.389 388.198C290.061 388.198 285.512 384.865 283.713 380.171C283.421 378.92 283.152 377.659 282.907 376.391C282.895 376.161 282.889 375.93 282.889 375.698C282.889 368.794 289.046 363.198 295.949 363.198C301.022 363.198 305.389 366.219 307.349 370.561C307.657 372.294 308.024 374.008 308.449 375.698Z" fill="#FB9D75"/>
<path fill-rule="evenodd" clip-rule="evenodd" d="M295.949 363.198C301.022 363.198 305.389 366.219 307.349 370.561C308.713 378.238 311.246 385.511 314.756 392.19C315.419 393.452 316.117 394.693 316.849 395.912C317.311 397.216 317.562 398.62 317.562 400.083C317.562 406.986 311.435 412.583 304.531 412.583C300.627 412.583 297.14 410.792 294.848 407.987C294.112 406.736 293.402 405.468 292.719 404.182C288.742 396.693 285.69 388.639 283.713 380.171C283.421 378.92 283.152 377.659 282.907 376.391C282.895 376.161 282.889 375.93 282.889 375.698C282.889 368.794 289.046 363.198 295.949 363.198Z" fill="#FB9D75"/>
<path fill-rule="evenodd" clip-rule="evenodd" d="M317.562 400.083C317.562 406.986 311.435 412.583 304.531 412.583C300.627 412.583 297.14 410.792 294.848 407.987C294.112 406.736 293.402 405.468 292.719 404.182C292.274 402.898 292.031 401.519 292.031 400.083C292.031 393.179 298.158 387.583 305.062 387.583C308.973 387.583 312.464 389.378 314.756 392.19C315.419 393.452 316.117 394.693 316.849 395.912C317.311 397.216 317.562 398.62 317.562 400.083Z" fill="#FB9D75"/>
<path fill-rule="evenodd" clip-rule="evenodd" d="M324.577 439.855C334.425 446.614 345.544 451.656 357.502 454.549C359.196 454.958 360.908 455.325 362.634 455.647C369.538 455.647 375.134 449.439 375.134 442.536C375.134 437.484 372.138 433.133 367.826 431.161C366.074 430.846 364.342 430.47 362.634 430.036C353.697 427.761 345.401 423.882 338.07 418.722C340.508 421.003 342.031 424.249 342.031 427.851C342.031 434.755 336.011 440.701 329.107 440.701C327.509 440.701 325.981 440.402 324.577 439.855Z" fill="#FB9D75"/>
<path d="M329.107 440.701C336.011 440.701 342.031 434.755 342.031 427.851C342.031 424.249 340.508 421.003 338.07 418.722C337.257 418.15 336.455 417.561 335.665 416.957C333.853 415.935 331.761 415.351 329.531 415.351C322.628 415.351 316.607 421.298 316.607 428.201C316.607 431.156 317.632 433.87 319.345 436.01C321.046 437.346 322.79 438.629 324.577 439.855C325.981 440.402 327.509 440.701 329.107 440.701Z" fill="#FB9D75"/>
</svg>
