<svg width="500" height="500" viewBox="0 0 500 500" fill="none" xmlns="http://www.w3.org/2000/svg">
<path d="M250 0C388.071 0 500 111.929 500 250C500 388.071 388.071 500 250 500C111.929 500 0 388.071 0 250C0 111.929 111.929 8.36796e-05 250 0ZM250 25C125.736 25.0001 25 125.736 25 250C25 374.264 125.736 475 250 475C374.264 475 475 374.264 475 250C475 125.736 374.264 25 250 25Z" fill="#36345B"/>
<path fill-rule="evenodd" clip-rule="evenodd" d="M250 49.9995C360.457 49.9995 450 139.544 450 250C450 360.457 360.457 450 250 450C139.543 450 50.0003 360.457 50 250C50 139.544 139.543 49.9995 250 49.9995ZM250 75.0005C153.35 75.0005 75 153.351 75 250C75.0003 346.65 153.35 425 250 425C346.65 425 425 346.65 425 250C425 153.351 346.65 75.0005 250 75.0005Z" fill="#FE690C"/>
<path fill-rule="evenodd" clip-rule="evenodd" d="M250 100C332.843 100.001 400 167.158 400 250C400 332.843 332.843 400 250 400C167.158 400 100.001 332.843 100 250C100 167.158 167.158 100 250 100ZM250 125C180.965 125 125 180.965 125 250C125.001 319.036 180.965 375 250 375C319.036 375 375 319.036 375 250C375 180.965 319.036 125.001 250 125Z" fill="#36345B"/>
<path d="M250 150C305.229 150 350 194.772 350 250C350 305.229 305.229 350 250 350C194.772 350 150 305.229 150 250C150 194.772 194.772 150 250 150ZM250.092 175C208.671 175 175.092 208.579 175.092 250C175.093 291.422 208.671 325 250.092 325C291.513 325 325.092 291.421 325.092 250C325.092 208.579 291.513 175.001 250.092 175Z" fill="#FE690C"/>
<path d="M281.786 250C281.786 267.555 267.555 281.786 250 281.786H218.215V250C218.215 232.446 232.446 218.215 250 218.215C267.555 218.215 281.786 232.446 281.786 250Z" fill="#36345B"/>
<rect x="245.957" y="236.528" width="8.08692" height="21.6398" rx="4" fill="#FE690C"/>
<rect x="245.957" y="261.882" width="8.08692" height="7.78487" rx="3.89243" fill="#FE690C"/>
</svg>
