<svg xmlns="http://www.w3.org/2000/svg" style="display:none">
  <symbol id="icon-radar" viewBox="0 0 24 24">
    <circle cx="12" cy="12" r="9" />
    <circle cx="12" cy="12" r="5.5" />
    <circle cx="12" cy="12" r="2" />
    <line x1="12" y1="12" x2="20" y2="6" />
  </symbol>
  <symbol id="icon-search" viewBox="0 0 24 24">
    <circle cx="11" cy="11" r="6" />
    <line x1="20" y1="20" x2="15.5" y2="15.5" />
  </symbol>
  <symbol id="icon-sun" viewBox="0 0 24 24">
    <circle cx="12" cy="12" r="4" />
    <line x1="12" y1="2" x2="12" y2="5" />
    <line x1="12" y1="19" x2="12" y2="22" />
    <line x1="2" y1="12" x2="5" y2="12" />
    <line x1="19" y1="12" x2="22" y2="12" />
    <line x1="5" y1="5" x2="7" y2="7" />
    <line x1="17" y1="17" x2="19" y2="19" />
    <line x1="19" y1="5" x2="17" y2="7" />
    <line x1="7" y1="17" x2="5" y2="19" />
  </symbol>
  <symbol id="icon-moon" viewBox="0 0 24 24">
    <path d="M20 14.5A8 8 0 0 1 9.5 4 8 8 0 1 0 20 14.5Z" />
  </symbol>
  <symbol id="icon-menu" viewBox="0 0 24 24">
    <line x1="3" y1="6" x2="21" y2="6" />
    <line x1="3" y1="12" x2="21" y2="12" />
    <line x1="3" y1="18" x2="21" y2="18" />
  </symbol>
  <symbol id="icon-close" viewBox="0 0 24 24">
    <line x1="5" y1="5" x2="19" y2="19" />
    <line x1="19" y1="5" x2="5" y2="19" />
  </symbol>
  <symbol id="icon-arrow-right" viewBox="0 0 24 24">
    <line x1="3" y1="12" x2="20" y2="12" />
    <polyline points="14 6 20 12 14 18" />
  </symbol>
  <symbol id="icon-chevron-left" viewBox="0 0 24 24">
    <polyline points="15 5 8 12 15 19" />
  </symbol>
  <symbol id="icon-chevron-right" viewBox="0 0 24 24">
    <polyline points="9 5 16 12 9 19" />
  </symbol>
  <symbol id="icon-check" viewBox="0 0 24 24">
    <polyline points="4 13 9 18 20 6" />
  </symbol>
  <symbol id="icon-alert" viewBox="0 0 24 24">
    <line x1="12" y1="4" x2="12" y2="14" />
    <line x1="12" y1="18" x2="12" y2="18.5" />
  </symbol>
  <symbol id="icon-clock" viewBox="0 0 24 24">
    <circle cx="12" cy="12" r="8" />
    <polyline points="12 7 12 12 16 14" />
  </symbol>
  <symbol id="icon-user" viewBox="0 0 24 24">
    <circle cx="12" cy="8" r="4" />
    <path d="M4 21c0-4 4-6 8-6s8 2 8 6" />
  </symbol>
  <symbol id="icon-logout" viewBox="0 0 24 24">
    <polyline points="10 4 4 4 4 20 10 20" />
    <line x1="9" y1="12" x2="20" y2="12" />
    <polyline points="15 7 20 12 15 17" />
  </symbol>
  <symbol id="icon-send" viewBox="0 0 24 24">
    <polygon points="3 11 21 4 14 21 11 13 3 11" />
  </symbol>
  <symbol id="icon-filter" viewBox="0 0 24 24">
    <polygon points="3 5 21 5 14 13 14 20 10 18 10 13 3 5" />
  </symbol>
  <symbol id="icon-copy" viewBox="0 0 24 24">
    <rect x="8" y="8" width="12" height="12" />
    <polyline points="16 4 4 4 4 16" />
  </symbol>
  <symbol id="icon-shield" viewBox="0 0 24 24">
    <polygon points="12 3 20 6 20 12 12 21 4 12 4 6 12 3" />
  </symbol>
  <symbol id="icon-chart" viewBox="0 0 24 24">
    <line x1="4" y1="20" x2="20" y2="20" />
    <rect x="6" y="11" width="3" height="6" />
    <rect x="11" y="7" width="3" height="10" />
    <rect x="16" y="13" width="3" height="4" />
  </symbol>
</svg>
